<?xml version="1.0" encoding="UTF-8"?>
<svg version="1.1" xmlns="http://www.w3.org/2000/svg" width="128" height="128">
<path d="M0 0 C0.99 0.33 1.98 0.66 3 1 C3.66666667 2.33333333 4.33333333 3.66666667 5 5 C6.90336809 6.65670412 6.90336809 6.65670412 9 8 C12 10 12 10 13 13 C13.598125 13.556875 14.19625 14.11375 14.8125 14.6875 C19.58305385 19.73065693 21.25583204 25.17846039 22 32 C22.33128906 32.96421875 22.66257812 33.9284375 23.00390625 34.921875 C24.60737432 40.39461263 24.32866542 46.03283762 24.3125 51.6875 C24.32861328 52.79544922 24.34472656 53.90339844 24.36132812 55.04492188 C24.36528895 61.82190043 23.5843216 67.82919538 21.74291992 74.35473633 C20.96178147 76.98292851 20.96178147 76.98292851 20.50805664 79.65454102 C19.78694586 82.98357093 18.13156416 85.30265376 16.25 88.125 C15.57453125 89.15882812 14.8990625 90.19265625 14.203125 91.2578125 C11.94817764 94.0645023 10.11709633 95.28730971 7 97 C5.61851345 98.21973861 4.26469161 99.47139537 2.9375 100.75 C-11.93130618 114.11963729 -27.35638344 116.99198836 -46.71875 116.4453125 C-58.40396365 115.82279665 -67.74782554 111.65027357 -77.609375 105.453125 C-80.00803054 103.87369146 -80.00803054 103.87369146 -83 103 C-83.66666667 101.66666667 -84.33333333 100.33333333 -85 99 C-86.90336809 97.34329588 -86.90336809 97.34329588 -89 96 C-92 94 -92 94 -93 91 C-93.99 90.0409375 -93.99 90.0409375 -95 89.0625 C-97.13342004 86.86241058 -97.45306932 85.91696362 -98 83 C-98.309375 82.401875 -98.61875 81.80375 -98.9375 81.1875 C-100.3736279 78.23076608 -101.14735047 75.16698396 -102 72 C-102.66 72 -103.32 72 -104 72 C-104 58.8 -104 45.6 -104 32 C-103.34 32 -102.68 32 -102 32 C-102 30.35 -102 28.7 -102 27 C-101.34 27 -100.68 27 -100 27 C-99.7525 25.80375 -99.505 24.6075 -99.25 23.375 C-98.23806944 19.30559351 -96.59879196 16.32970219 -94 13 C-93.34 12.67 -92.68 12.34 -92 12 C-91.71125 11.360625 -91.4225 10.72125 -91.125 10.0625 C-90 8 -90 8 -88.23046875 7.1328125 C-85.46711277 5.72935675 -83.49945155 3.87585461 -81.1875 1.8125 C-56.944897 -18.33550785 -25.59334238 -15.5111166 0 0 Z " fill="#1E1C1D" transform="translate(104,12)"/>
<path d="M0 0 C1.95825873 -0.02694851 3.91662226 -0.04637218 5.875 -0.0625 C7.51082031 -0.07990234 7.51082031 -0.07990234 9.1796875 -0.09765625 C12 -0 12 -0 14 1 C14.37890625 3.14453125 14.37890625 3.14453125 14.5625 5.8125 C14.79281125 8.99455538 15.13286253 11.9256035 16 15 C16.33 14.67 16.66 14.34 17 14 C17 13.01 17 12.02 17 11 C23.84520925 10.56307175 30.11344474 11.67667503 35.5625 16.0625 C37 18 37 18 37 20 C33.37 20.99 29.74 21.98 26 23 C26.99 23.99 27.98 24.98 29 26 C29 25.34 29 24.68 29 24 C31.31 24.33 33.62 24.66 36 25 C36.28875 24.030625 36.5775 23.06125 36.875 22.0625 C38 19 38 19 40 18 C39.505 20.475 39.505 20.475 39 23 C39.99 23 40.98 23 42 23 C42 45.44 42 67.88 42 91 C40 91 40 91 37.625 88.6875 C36.75875 87.800625 35.8925 86.91375 35 86 C33.68824014 84.97186389 32.3630107 83.95915568 31 83 C31 84.32 31 85.64 31 87 C26.16743695 86.58578031 24.17320782 84.53586014 21 81 C22.98 80.67 24.96 80.34 27 80 C27 79.34 27 78.68 27 78 C27.99 78 28.98 78 30 78 C29.34 77.67 28.68 77.34 28 77 C28 76.34 28 75.68 28 75 C27.34 75 26.68 75 26 75 C26 75.66 26 76.32 26 77 C24.02 76.505 24.02 76.505 22 76 C21.505 77.485 21.505 77.485 21 79 C21 78.34 21 77.68 21 77 C20.01 76.505 20.01 76.505 19 76 C19 74.68 19 73.36 19 72 C17.02 72.495 17.02 72.495 15 73 C14.375 70.625 14.375 70.625 14 68 C14.66 67.34 15.32 66.68 16 66 C16 66.66 16 67.32 16 68 C16.99 68 17.98 68 19 68 C18.67 67.01 18.34 66.02 18 65 C20.92540704 65.62687294 23.4835249 66.35127493 26 68 C26.75 70.125 26.75 70.125 27 72 C27.99 70.515 27.99 70.515 29 69 C29.33 69.99 29.66 70.98 30 72 C32.00016466 73.20882096 32.00016466 73.20882096 34 74 C33.7834375 73.01 33.7834375 73.01 33.5625 72 C32.87700084 68.34400449 32.43824485 64.69377805 32 61 C30.515 60.505 30.515 60.505 29 60 C28.67 59.67 28.34 59.34 28 59 C28 61.97 28 64.94 28 68 C27.67 68 27.34 68 27 68 C26.505 63.545 26.505 63.545 26 59 C25.34 59 24.68 59 24 59 C24 58.01 24 57.02 24 56 C23.01 56.66 22.02 57.32 21 58 C20.01 58 19.02 58 18 58 C17.79375 58.639375 17.5875 59.27875 17.375 59.9375 C16 62 16 62 12.875 62.75 C11.92625 62.8325 10.9775 62.915 10 63 C10.33 61.68 10.66 60.36 11 59 C9.02 59 7.04 59 5 59 C5 59.66 5 60.32 5 61 C6.32 61.33 7.64 61.66 9 62 C9 62.66 9 63.32 9 64 C6.03 64.495 6.03 64.495 3 65 C6.3 65.66 9.6 66.32 13 67 C13.66 73.6 14.32 80.2 15 87 C10.07293342 83.30470007 5.55614084 79.8591919 1.0625 75.75 C0.12535156 74.89921875 -0.81179687 74.0484375 -1.77734375 73.171875 C-4 71 -4 71 -5 69 C-5.61875 70.0828125 -5.61875 70.0828125 -6.25 71.1875 C-9.87876967 77.01945126 -12.46582054 79.5496827 -19 82 C-19.639375 82.4125 -20.27875 82.825 -20.9375 83.25 C-24.35183735 84.49157722 -27.45757753 83.59040375 -31 83 C-31.33 84.32 -31.66 85.64 -32 87 C-32.66 87 -33.32 87 -34 87 C-34 85.68 -34 84.36 -34 83 C-35.98 83 -37.96 83 -40 83 C-40 85.97 -40 88.94 -40 92 C-39.01 92 -38.02 92 -37 92 C-37.66 94.97 -38.32 97.94 -39 101 C-39.99 101 -40.98 101 -42 101 C-42 89.45 -42 77.9 -42 66 C-40.68 66.66 -39.36 67.32 -38 68 C-38 68.66 -38 69.32 -38 70 C-33.05 70.33 -28.1 70.66 -23 71 C-23 70.34 -23 69.68 -23 69 C-23.66 69 -24.32 69 -25 69 C-25 68.34 -25 67.68 -25 67 C-24.34 67 -23.68 67 -23 67 C-22.67 60.4 -22.34 53.8 -22 47 C-18.7 47.33 -15.4 47.66 -12 48 C-11.67 47.01 -11.34 46.02 -11 45 C-9.68 45.33 -8.36 45.66 -7 46 C-7.061875 45.071875 -7.12375 44.14375 -7.1875 43.1875 C-6.96970704 39.48501975 -6.50445833 39.40428 -4 37 C-3.64080679 35.00448218 -3.30503431 33.00451121 -3 31 C0.74902555 29.12548722 4.91784516 29.46806474 9 30 C14.2439558 32.18271735 18.20660417 35.86175001 22 40 C22.33 40.33 22.66 40.66 23 41 C23.66 39.35 24.32 37.7 25 36 C26.98 36.33 28.96 36.66 31 37 C31 37.99 31 38.98 31 40 C30.34 40 29.68 40 29 40 C29.495 44.95 29.495 44.95 30 50 C29.01 50.495 29.01 50.495 28 51 C29.485 51.495 29.485 51.495 31 52 C31.495 51.01 31.495 51.01 32 50 C32.99 50 33.98 50 35 50 C35.495 49.01 35.495 49.01 36 48 C35.38125 47.938125 34.7625 47.87625 34.125 47.8125 C32 47 32 47 30.75 44.4375 C30.5025 43.633125 30.255 42.82875 30 42 C32.31 41.34 34.62 40.68 37 40 C37.33 38.35 37.66 36.7 38 35 C38.66 35 39.32 35 40 35 C40 33.68 40 32.36 40 31 C38.68 31 37.36 31 36 31 C36 31.99 36 32.98 36 34 C35.01 34 34.02 34 33 34 C33 34.66 33 35.32 33 36 C32.34 36 31.68 36 31 36 C31 34.68 31 33.36 31 32 C29.68 31.67 28.36 31.34 27 31 C27 30.01 27 29.02 27 28 C26.484375 27.7525 25.96875 27.505 25.4375 27.25 C23 26 23 26 19.8125 24 C15.76384024 21.64121562 11.58026172 20.78934216 7 20 C7.33 18.02 7.66 16.04 8 14 C5.525 13.505 5.525 13.505 3 13 C3 12.01 3 11.02 3 10 C2.38125 9.938125 1.7625 9.87625 1.125 9.8125 C-1 9 -1 9 -2.25 6.4375 C-2.4975 5.633125 -2.745 4.82875 -3 4 C-1.68 3.67 -0.36 3.34 1 3 C0.505 1.515 0.505 1.515 0 0 Z " fill="#A87E5C" transform="translate(64,0)"/>
<path d="M0 0 C0 0.66 0 1.32 0 2 C0.99 2.33 1.98 2.66 3 3 C7.49443124 7.66729398 7.13906836 13.65759256 7.125 19.8125 C7.12886719 21.52373047 7.12886719 21.52373047 7.1328125 23.26953125 C7 26 7 26 6 27 C3.88049238 27.24180298 1.75329336 27.41707431 -0.375 27.5625 C-1.53773437 27.64628906 -2.70046875 27.73007812 -3.8984375 27.81640625 C-8.92762786 28.04152239 -13.96577385 28 -19 28 C-19 54.4 -19 80.8 -19 108 C-28.6 103.2 -28.6 103.2 -30 99 C-30.99 98.0409375 -30.99 98.0409375 -32 97.0625 C-34.13342004 94.86241058 -34.45306932 93.91696362 -35 91 C-35.309375 90.401875 -35.61875 89.80375 -35.9375 89.1875 C-37.3736279 86.23076608 -38.14735047 83.16698396 -39 80 C-39.66 80 -40.32 80 -41 80 C-41 66.8 -41 53.6 -41 40 C-40.34 40 -39.68 40 -39 40 C-39 38.35 -39 36.7 -39 35 C-38.34 35 -37.68 35 -37 35 C-36.7525 33.80375 -36.505 32.6075 -36.25 31.375 C-35.23806944 27.30559351 -33.59879196 24.32970219 -31 21 C-30.34 20.67 -29.68 20.34 -29 20 C-28.71125 19.360625 -28.4225 18.72125 -28.125 18.0625 C-27 16 -27 16 -25.25 15.140625 C-22.40136816 13.69652692 -20.28650426 11.77911084 -17.875 9.6875 C-6.234375 0 -6.234375 0 0 0 Z " fill="#000000" transform="translate(41,4)"/>
<path d="M0 0 C8.76535257 1.4608921 16.10858491 5.01795308 23.671875 9.62890625 C26.02693998 11.12505545 26.02693998 11.12505545 29 12 C29.66666667 13.33333333 30.33333333 14.66666667 31 16 C32.90336809 17.65670412 32.90336809 17.65670412 35 19 C38 21 38 21 39 24 C39.598125 24.556875 40.19625 25.11375 40.8125 25.6875 C45.58305385 30.73065693 47.25583204 36.17846039 48 43 C48.33128906 43.96421875 48.66257813 44.9284375 49.00390625 45.921875 C50.60737432 51.39461263 50.32866542 57.03283762 50.3125 62.6875 C50.32861328 63.79544922 50.34472656 64.90339844 50.36132812 66.04492188 C50.36528895 72.82190043 49.5843216 78.82919538 47.74291992 85.35473633 C46.96178147 87.98292851 46.96178147 87.98292851 46.50805664 90.65454102 C45.78694586 93.98357093 44.13156416 96.30265376 42.25 99.125 C41.23679687 100.67574219 41.23679687 100.67574219 40.203125 102.2578125 C37.9622208 105.04702304 36.10928775 106.31643444 33 108 C31.6696875 109.3303125 31.6696875 109.3303125 30.3125 110.6875 C29.549375 111.450625 28.78625 112.21375 28 113 C27.34 113 26.68 113 26 113 C25.34 111.68 24.68 110.36 24 109 C25.485 109.495 25.485 109.495 27 110 C27.74030095 104.21614137 28.14319495 98.55539018 28.11352539 92.72631836 C28.11367142 91.95447205 28.11381744 91.18262573 28.1139679 90.38739014 C28.11327898 87.87151134 28.10553513 85.35570939 28.09765625 82.83984375 C28.09578843 81.08150778 28.09436625 79.32317128 28.09336853 77.56483459 C28.08957198 72.96341485 28.0797665 68.36202726 28.06866455 63.76062012 C28.05838853 59.05461054 28.05385771 54.34859571 28.04882812 49.64257812 C28.03814136 40.42837138 28.02109977 31.21418838 28 22 C27.01 22 26.02 22 25 22 C25 20.68 25 19.36 25 18 C24.5875 18.969375 24.175 19.93875 23.75 20.9375 C22 24 22 24 20 25 C18 25 18 25 15 23 C15 23.66 15 24.32 15 25 C13.68 24.34 12.36 23.68 11 23 C11 21.68 11 20.36 11 19 C11.33 19.99 11.66 20.98 12 22 C12.62648438 21.7834375 13.25296875 21.566875 13.8984375 21.34375 C14.71570313 21.0653125 15.53296875 20.786875 16.375 20.5 C17.18710938 20.2215625 17.99921875 19.943125 18.8359375 19.65625 C21 19 21 19 23 19 C22.75568004 16.45748398 22.75568004 16.45748398 21 14 C18.47453389 13.20778273 16.03190359 12.80839945 13.41015625 12.45703125 C11 12 11 12 8 10 C7.67 10.66 7.34 11.32 7 12 C7 11.34 7 10.68 7 10 C5.68 10 4.36 10 3 10 C3.66 11.65 4.32 13.3 5 15 C3.68 14.67 2.36 14.34 1 14 C-0.14806378 4.58997722 -0.14806378 4.58997722 0 0 Z " fill="#010001" transform="translate(78,1)"/>
<path d="M0 0 C0.33 0 0.66 0 1 0 C1.02326932 8.5630045 1.04098897 17.12599557 1.05181217 25.68902397 C1.05700928 29.66606648 1.06404866 33.64308721 1.07543945 37.62011719 C1.08638189 41.46509131 1.09230068 45.31004461 1.09487724 49.15503311 C1.09671117 50.61488294 1.10029195 52.07473175 1.10573006 53.5345726 C1.13386914 61.40847955 1.02792025 69.18063811 0 77 C-0.66 77 -1.32 77 -2 77 C-2.09667969 77.88171875 -2.09667969 77.88171875 -2.1953125 78.78125 C-3.91963207 83.53568455 -9.7598683 85.71562905 -14 88 C-19.36027643 90.39397762 -24.07082774 92.26564392 -30 92 C-32.35735214 84.21359446 -33.99332526 76.33890126 -35.46582031 68.34667969 C-37.00755548 60.24219609 -39.30324223 52.93315906 -43.1875 45.625 C-46 40.32846715 -46 40.32846715 -46 37 C-46.99 36.67 -47.98 36.34 -49 36 C-48.01 35.01 -47.02 34.02 -46 33 C-45.61714844 33.71800781 -45.23429687 34.43601563 -44.83984375 35.17578125 C-42.74697626 38.3883995 -40.41433454 40.62974881 -37.5625 43.1875 C-36.61503906 44.04730469 -35.66757813 44.90710938 -34.69140625 45.79296875 C-32.4722798 47.61271685 -30.62011788 48.89125035 -28 50 C-28.16371094 49.31550781 -28.32742187 48.63101563 -28.49609375 47.92578125 C-29.06447034 44.6256722 -29.09630767 41.53445931 -29.0625 38.1875 C-29.05347656 37.02605469 -29.04445313 35.86460938 -29.03515625 34.66796875 C-29.02355469 33.78753906 -29.01195313 32.90710938 -29 32 C-30.258125 32.061875 -31.51625 32.12375 -32.8125 32.1875 C-36.72231986 32.20826011 -36.72231986 32.20826011 -39 30.5 C-39.33 30.005 -39.66 29.51 -40 29 C-37.69 29 -35.38 29 -33 29 C-33.33 28.34 -33.66 27.68 -34 27 C-34.99 26.67 -35.98 26.34 -37 26 C-37 25.34 -37 24.68 -37 24 C-35.02 24 -33.04 24 -31 24 C-31.33 25.32 -31.66 26.64 -32 28 C-27.18877153 26.47444034 -27.18877153 26.47444034 -24 23 C-22.02111039 22.27306096 -20.02045442 21.60183749 -18 21 C-18 21.99 -18 22.98 -18 24 C-17.34 24 -16.68 24 -16 24 C-15.505 25.485 -15.505 25.485 -15 27 C-14.505 25.515 -14.505 25.515 -14 24 C-10.125 25.75 -10.125 25.75 -9 28 C-8.960008 29.99960012 -8.95653201 32.00047242 -9 34 C-8.01 34.495 -8.01 34.495 -7 35 C-7.33 36.32 -7.66 37.64 -8 39 C-8.763125 38.67 -9.52625 38.34 -10.3125 38 C-12.99069135 36.82563314 -12.99069135 36.82563314 -16 37 C-16 35.68 -16 34.36 -16 33 C-18.31 32.34 -20.62 31.68 -23 31 C-23 31.66 -23 32.32 -23 33 C-24.32 33 -25.64 33 -27 33 C-26.67 34.32 -26.34 35.64 -26 37 C-24.515 36.505 -24.515 36.505 -23 36 C-22.5359375 36.9590625 -22.5359375 36.9590625 -22.0625 37.9375 C-21.1654837 39.93610821 -21.1654837 39.93610821 -20 41 C-18.67405895 41.36162029 -17.34061543 41.69728039 -16 42 C-16 41.34 -16 40.68 -16 40 C-15.34 40 -14.68 40 -14 40 C-14 40.66 -14 41.32 -14 42 C-12.68 42 -11.36 42 -10 42 C-10 42.66 -10 43.32 -10 44 C-11.65 43.67 -13.3 43.34 -15 43 C-15 43.66 -15 44.32 -15 45 C-16.65 45.66 -18.3 46.32 -20 47 C-15.97652412 50.46971377 -15.97652412 50.46971377 -11 52 C-11.33 50.35 -11.66 48.7 -12 47 C-8.04322598 48.67401978 -5.15535787 51.13149285 -2 54 C-2 54.66 -2 55.32 -2 56 C-1.34 56 -0.68 56 0 56 C0 37.52 0 19.04 0 0 Z " fill="#624F42" transform="translate(106,35)"/>
<path d="M0 0 C1.95825873 -0.02694851 3.91662226 -0.04637218 5.875 -0.0625 C6.96554688 -0.07410156 8.05609375 -0.08570313 9.1796875 -0.09765625 C12 0 12 0 14 1 C14.37890625 3.14453125 14.37890625 3.14453125 14.5625 5.8125 C14.79281125 8.99455538 15.13286253 11.9256035 16 15 C16.33 14.67 16.66 14.34 17 14 C17 13.01 17 12.02 17 11 C23.84520925 10.56307175 30.11344474 11.67667503 35.5625 16.0625 C37 18 37 18 37 20 C33.37 20.99 29.74 21.98 26 23 C26.99 23.99 27.98 24.98 29 26 C29 25.34 29 24.68 29 24 C31.31 24.33 33.62 24.66 36 25 C36.28875 24.030625 36.5775 23.06125 36.875 22.0625 C38 19 38 19 40 18 C39.505 20.475 39.505 20.475 39 23 C39.99 23 40.98 23 42 23 C42 45.44 42 67.88 42 91 C40 91 40 91 37.625 88.6875 C36.325625 87.3571875 36.325625 87.3571875 35 86 C33.68824014 84.97186389 32.3630107 83.95915568 31 83 C31 84.32 31 85.64 31 87 C26.16743695 86.58578031 24.17320782 84.53586014 21 81 C23.97 80.505 23.97 80.505 27 80 C27 79.34 27 78.68 27 78 C27.99 78 28.98 78 30 78 C29.01 77.505 29.01 77.505 28 77 C28 76.34 28 75.68 28 75 C27.34 75 26.68 75 26 75 C26 75.66 26 76.32 26 77 C24.68 76.67 23.36 76.34 22 76 C21.67 76.99 21.34 77.98 21 79 C21 78.34 21 77.68 21 77 C20.34 76.67 19.68 76.34 19 76 C19 74.68 19 73.36 19 72 C17.02 72.495 17.02 72.495 15 73 C14.375 70.625 14.375 70.625 14 68 C14.99 67.01 14.99 67.01 16 66 C16 66.66 16 67.32 16 68 C16.99 68 17.98 68 19 68 C18.67 67.01 18.34 66.02 18 65 C20.92540704 65.62687294 23.4835249 66.35127493 26 68 C26.75 70.125 26.75 70.125 27 72 C27.66 71.01 28.32 70.02 29 69 C29.33 69.99 29.66 70.98 30 72 C32.00016466 73.20882096 32.00016466 73.20882096 34 74 C33.855625 73.34 33.71125 72.68 33.5625 72 C32.87700084 68.34400449 32.43824485 64.69377805 32 61 C31.01 60.67 30.02 60.34 29 60 C28.505 59.505 28.505 59.505 28 59 C28 61.97 28 64.94 28 68 C27.67 68 27.34 68 27 68 C26.67 65.03 26.34 62.06 26 59 C25.34 59 24.68 59 24 59 C24 58.01 24 57.02 24 56 C23.01 56 22.02 56 21 56 C21.33 53.03 21.66 50.06 22 47 C22.99 47 23.98 47 25 47 C25.33 47.66 25.66 48.32 26 49 C27.98 48.505 27.98 48.505 30 48 C30 48.66 30 49.32 30 50 C29.01 50.495 29.01 50.495 28 51 C28.99 51.33 29.98 51.66 31 52 C31.495 51.01 31.495 51.01 32 50 C32.99 50 33.98 50 35 50 C35.495 49.01 35.495 49.01 36 48 C35.071875 47.9071875 35.071875 47.9071875 34.125 47.8125 C32 47 32 47 30.75 44.4375 C30.5025 43.633125 30.255 42.82875 30 42 C32.31 41.34 34.62 40.68 37 40 C37.33 38.35 37.66 36.7 38 35 C38.66 35 39.32 35 40 35 C40 33.68 40 32.36 40 31 C38.68 31 37.36 31 36 31 C36 31.99 36 32.98 36 34 C35.01 34 34.02 34 33 34 C33 34.66 33 35.32 33 36 C32.34 36 31.68 36 31 36 C31 34.68 31 33.36 31 32 C29.68 31.67 28.36 31.34 27 31 C27 30.01 27 29.02 27 28 C26.484375 27.7525 25.96875 27.505 25.4375 27.25 C23 26 23 26 19.8125 24 C15.76384024 21.64121562 11.58026172 20.78934216 7 20 C7.33 18.02 7.66 16.04 8 14 C6.35 13.67 4.7 13.34 3 13 C3 12.01 3 11.02 3 10 C2.38125 9.938125 1.7625 9.87625 1.125 9.8125 C-1 9 -1 9 -2.25 6.4375 C-2.4975 5.633125 -2.745 4.82875 -3 4 C-1.68 3.67 -0.36 3.34 1 3 C0.67 2.01 0.34 1.02 0 0 Z " fill="#A87C97" transform="translate(64,0)"/>
<path d="M0 0 C0.495 1.485 0.495 1.485 1 3 C0.01 3.66 -0.98 4.32 -2 5 C-1.20882096 6.99983534 -1.20882096 6.99983534 0 9 C0.99 9.33 1.98 9.66 3 10 C3.495 11.485 3.495 11.485 4 13 C6.475 13.495 6.475 13.495 9 14 C8.34 15.98 7.68 17.96 7 20 C7.556875 20.01417969 8.11375 20.02835938 8.6875 20.04296875 C15.00838766 20.43802423 18.92620436 22.31518462 24 26 C24.99 26.66 25.98 27.32 27 28 C27.495 29.485 27.495 29.485 28 31 C29.485 31.495 29.485 31.495 31 32 C31 33.32 31 34.64 31 36 C31.66 36 32.32 36 33 36 C33 35.34 33 34.68 33 34 C33.99 34 34.98 34 36 34 C36 33.01 36 32.02 36 31 C37.32 30.67 38.64 30.34 40 30 C40.495 30.99 40.495 30.99 41 32 C40.67 32.99 40.34 33.98 40 35 C39.34 35 38.68 35 38 35 C37.938125 35.78375 37.87625 36.5675 37.8125 37.375 C37.544375 38.24125 37.27625 39.1075 37 40 C34.5 41.1875 34.5 41.1875 32 42 C31.505 42.99 31.505 42.99 31 44 C32.72226496 47.24849977 32.72226496 47.24849977 36 48 C35.67 48.99 35.34 49.98 35 51 C32.36 51.33 29.72 51.66 27 52 C27.495 51.01 27.495 51.01 28 50 C28.66 50 29.32 50 30 50 C29.649375 48.906875 29.29875 47.81375 28.9375 46.6875 C28 43 28 43 29 40 C29.66 40 30.32 40 31 40 C31 39.01 31 38.02 31 37 C29.02 36.67 27.04 36.34 25 36 C24.814375 37.1446875 24.814375 37.1446875 24.625 38.3125 C24 41 24 41 22 44 C21.9175 43.05125 21.835 42.1025 21.75 41.125 C21.5025 40.09375 21.255 39.0625 21 38 C19.14613947 36.91651472 19.14613947 36.91651472 17 36 C15.83333333 35.125 14.66666667 34.25 13.5 33.375 C8.29349043 30.01246257 2.98722475 30.55095814 -3 31 C-2.97035156 31.9590625 -2.94070312 32.918125 -2.91015625 33.90625 C-3.01636937 37.56367569 -3.52244918 37.62155121 -6 40 C-6.7269226 43.10839021 -6.7269226 43.10839021 -7 46 C-8.32 46 -9.64 46 -11 46 C-11.33 46.66 -11.66 47.32 -12 48 C-13.65 47.67 -15.3 47.34 -17 47 C-17.33 43.37 -17.66 39.74 -18 36 C-25.92 35.34 -33.84 34.68 -42 34 C-42 33.34 -42 32.68 -42 32 C-29.625 31.01 -29.625 31.01 -17 30 C-16.13845459 18.02911758 -16.13845459 18.02911758 -21.125 7.75 C-21.74375 7.1725 -22.3625 6.595 -23 6 C-23 5.01 -23 4.02 -23 3 C-15.1768938 0.41283102 -8.2236194 -0.38750039 0 0 Z " fill="#271E1C" transform="translate(64,0)"/>
<path d="M0 0 C17.55555556 0 17.55555556 0 24 1 C25 2 25 2 25.09765625 4.50390625 C25.08605469 5.51324219 25.07445313 6.52257813 25.0625 7.5625 C25.05347656 8.57441406 25.04445313 9.58632813 25.03515625 10.62890625 C25.02355469 11.41136719 25.01195313 12.19382812 25 13 C23.35 13 21.7 13 20 13 C20.01160156 14.02480469 20.02320312 15.04960938 20.03515625 16.10546875 C20.04454022 17.466144 20.05363977 18.82682124 20.0625 20.1875 C20.07087891 20.86103516 20.07925781 21.53457031 20.08789062 22.22851562 C20.10606538 25.95434131 19.89299392 29.3788042 19 33 C18.34 33 17.68 33 17 33 C17 33.66 17 34.32 17 35 C17.66 35 18.32 35 19 35 C19 35.66 19 36.32 19 37 C13.39 37 7.78 37 2 37 C2.99 36.505 2.99 36.505 4 36 C3.34 34.35 2.68 32.7 2 31 C1.34 31 0.68 31 0 31 C0 20.77 0 10.54 0 0 Z " fill="#16161D" transform="translate(22,34)"/>
<path d="M0 0 C3.3 0.33 6.6 0.66 10 1 C10 3 10 5 10 7 C10.99 7.66 11.98 8.32 13 9 C13.1875 11.625 13.1875 11.625 13 14 C12.01 14 11.02 14 10 14 C10.33 16.64 10.66 19.28 11 22 C11.66 22 12.32 22 13 22 C13.75 24.1875 13.75 24.1875 14 27 C11.2960088 31.7319846 7.98351173 33.1311831 3 35 C2.0409375 35.61875 2.0409375 35.61875 1.0625 36.25 C-2.35183735 37.49157722 -5.45757753 36.59040375 -9 36 C-9.33 37.32 -9.66 38.64 -10 40 C-10.66 40 -11.32 40 -12 40 C-12 38.68 -12 37.36 -12 36 C-13.98 36 -15.96 36 -18 36 C-18 38.97 -18 41.94 -18 45 C-17.01 45 -16.02 45 -15 45 C-15.66 47.97 -16.32 50.94 -17 54 C-17.99 54 -18.98 54 -20 54 C-20 42.45 -20 30.9 -20 19 C-18.02 19.99 -18.02 19.99 -16 21 C-16 21.66 -16 22.32 -16 23 C-11.05 23.33 -6.1 23.66 -1 24 C-1 23.34 -1 22.68 -1 22 C-1.66 22 -2.32 22 -3 22 C-3 21.34 -3 20.68 -3 20 C-2.34 20 -1.68 20 -1 20 C-0.67 13.4 -0.34 6.8 0 0 Z " fill="#9B5C5F" transform="translate(42,47)"/>
<path d="M0 0 C0 0.66 0 1.32 0 2 C0.99 2.33 1.98 2.66 3 3 C7.49443124 7.66729398 7.13906836 13.65759256 7.125 19.8125 C7.12886719 21.52373047 7.12886719 21.52373047 7.1328125 23.26953125 C7 26 7 26 6 27 C-2.30350632 27.94730142 -10.65047675 28.15335859 -19 28 C-20.91580948 16.33455736 -20.91580948 16.33455736 -20 11 C-17.2988158 7.33851955 -14.10756357 5.80894104 -10 4 C-9.21496094 3.57460937 -8.42992187 3.14921875 -7.62109375 2.7109375 C-2.61415816 -0 -2.61415816 -0 0 0 Z " fill="#121014" transform="translate(41,4)"/>
<path d="M0 0 C1.95825873 -0.02694851 3.91662226 -0.04637218 5.875 -0.0625 C6.96554688 -0.07410156 8.05609375 -0.08570313 9.1796875 -0.09765625 C12 0 12 0 14 1 C14.37890625 3.14453125 14.37890625 3.14453125 14.5625 5.8125 C14.79281125 8.99455538 15.13286253 11.9256035 16 15 C16.33 14.67 16.66 14.34 17 14 C17 13.01 17 12.02 17 11 C23.84520925 10.56307175 30.11344474 11.67667503 35.5625 16.0625 C37 18 37 18 37 20 C33.37 20.99 29.74 21.98 26 23 C26.99 23.99 27.98 24.98 29 26 C29 25.34 29 24.68 29 24 C31.31 24.33 33.62 24.66 36 25 C36.28875 24.030625 36.5775 23.06125 36.875 22.0625 C38 19 38 19 40 18 C39.505 20.475 39.505 20.475 39 23 C39.99 23 40.98 23 42 23 C42 26.96 42 30.92 42 35 C41.34 35 40.68 35 40 35 C40 33.68 40 32.36 40 31 C38.68 31 37.36 31 36 31 C36 31.99 36 32.98 36 34 C35.01 34 34.02 34 33 34 C33 34.66 33 35.32 33 36 C32.34 36 31.68 36 31 36 C31 34.68 31 33.36 31 32 C29.68 31.67 28.36 31.34 27 31 C27 30.01 27 29.02 27 28 C26.484375 27.7525 25.96875 27.505 25.4375 27.25 C23 26 23 26 19.8125 24 C15.76384024 21.64121562 11.58026172 20.78934216 7 20 C7.33 18.02 7.66 16.04 8 14 C6.35 13.67 4.7 13.34 3 13 C3 12.01 3 11.02 3 10 C2.38125 9.938125 1.7625 9.87625 1.125 9.8125 C-1 9 -1 9 -2.25 6.4375 C-2.4975 5.633125 -2.745 4.82875 -3 4 C-1.68 3.67 -0.36 3.34 1 3 C0.67 2.01 0.34 1.02 0 0 Z " fill="#C69584" transform="translate(64,0)"/>
<path d="M0 0 C0.33 0 0.66 0 1 0 C1.02326932 8.5630045 1.04098897 17.12599557 1.05181217 25.68902397 C1.05700928 29.66606648 1.06404866 33.64308721 1.07543945 37.62011719 C1.08638189 41.46509131 1.09230068 45.31004461 1.09487724 49.15503311 C1.09671117 50.61488294 1.10029195 52.07473175 1.10573006 53.5345726 C1.13386914 61.40847955 1.02792025 69.18063811 0 77 C-0.66 77 -1.32 77 -2 77 C-2.13728516 77.90492187 -2.13728516 77.90492187 -2.27734375 78.828125 C-3.17720492 81.53257263 -4.20702019 82.2082314 -6.5625 83.75 C-7.20316406 84.17796875 -7.84382813 84.6059375 -8.50390625 85.046875 C-9.24447266 85.51867187 -9.24447266 85.51867187 -10 86 C-11.32 85.34 -12.64 84.68 -14 84 C-14.15197742 76.82328852 -13.73275672 69.76445203 -13.12109375 62.61328125 C-12.99796083 58.93915375 -13.37340418 55.61568998 -14 52 C-13.01 52 -12.02 52 -11 52 C-11.33 50.35 -11.66 48.7 -12 47 C-8.04322598 48.67401978 -5.15535787 51.13149285 -2 54 C-2 54.66 -2 55.32 -2 56 C-1.34 56 -0.68 56 0 56 C0 37.52 0 19.04 0 0 Z " fill="#4C3647" transform="translate(106,35)"/>
<path d="M0 0 C6.75 1.875 6.75 1.875 9 3 C9.33 2.01 9.66 1.02 10 0 C11.89453125 0.21484375 11.89453125 0.21484375 14 1 C18.88787732 10.68139408 18.13270665 22.50142941 18 33 C14.17679443 34.42258812 11.08718695 35.24042276 7 35 C4.86186705 27.93768206 3.27051818 20.78999261 1.8125 13.5625 C1.63364258 12.68625977 1.45478516 11.81001953 1.27050781 10.90722656 C1.02252441 9.65570801 1.02252441 9.65570801 0.76953125 8.37890625 C0.62104736 7.6319751 0.47256348 6.88504395 0.31958008 6.11547852 C0 4 0 4 0 0 Z " fill="#5F5E63" transform="translate(69,92)"/>
<path d="M0 0 C0.99 0.33 1.98 0.66 3 1 C3.79956055 2.76586914 3.79956055 2.76586914 4.38671875 5.03515625 C4.60263672 5.84404297 4.81855469 6.65292969 5.04101562 7.48632812 C5.25435547 8.33646484 5.46769531 9.18660156 5.6875 10.0625 C5.91244141 10.91650391 6.13738281 11.77050781 6.36914062 12.65039062 C6.92417305 14.76423753 7.46719069 16.88046244 8 19 C9.32 19 10.64 19 12 19 C12.5775 19.309375 13.155 19.61875 13.75 19.9375 C16.8035411 21.52233417 16.8035411 21.52233417 24 22 C24.66 28.6 25.32 35.2 26 42 C21.07293342 38.30470007 16.55614084 34.8591919 12.0625 30.75 C11.12535156 29.89921875 10.18820313 29.0484375 9.22265625 28.171875 C7 26 7 26 6 24 C4.02 24.99 4.02 24.99 2 26 C2 25.34 2 24.68 2 24 C1.34 24 0.68 24 0 24 C-0.33 21.36 -0.66 18.72 -1 16 C-0.01 16 0.98 16 2 16 C1.72965366 13.56282742 1.72965366 13.56282742 1 11 C0.01 10.34 -0.98 9.68 -2 9 C-1.125 1.125 -1.125 1.125 0 0 Z " fill="#EFC7A1" transform="translate(53,45)"/>
<path d="M0 0 C1.13500977 1.51879883 1.13500977 1.51879883 2.19140625 3.45703125 C2.77245117 4.50793945 2.77245117 4.50793945 3.36523438 5.58007812 C3.76033203 6.31677734 4.15542969 7.05347656 4.5625 7.8125 C4.96146484 8.53759766 5.36042969 9.26269531 5.77148438 10.00976562 C7.57989004 13.30957764 9.32966274 16.62796863 11 20 C9.375 22.0625 9.375 22.0625 7 24 C4.125 24.1875 4.125 24.1875 1 23 C-0.74587638 21.29963224 -2.22620151 19.53121953 -3.703125 17.59375 C-4.92891994 15.86408353 -4.92891994 15.86408353 -7 15 C-7.45375 14.071875 -7.9075 13.14375 -8.375 12.1875 C-9.81252857 8.96229984 -9.81252857 8.96229984 -12.1875 6.8125 C-12.785625 6.214375 -13.38375 5.61625 -14 5 C-14 4.01 -14 3.02 -14 2 C-12.23225581 1.46877637 -10.46065917 0.95035927 -8.6875 0.4375 C-7.70136719 0.14746094 -6.71523438 -0.14257812 -5.69921875 -0.44140625 C-3 -1 -3 -1 0 0 Z " fill="#E8765A" transform="translate(55,1)"/>
<path d="M0 0 C0.33 0 0.66 0 1 0 C1 1.98 1 3.96 1 6 C1.66 6 2.32 6 3 6 C3 5.01 3 4.02 3 3 C5.64 3 8.28 3 11 3 C12.2719539 5.5439078 12.00107536 7.05458682 11.75 9.875 C11.68296875 10.73867188 11.6159375 11.60234375 11.546875 12.4921875 C10.91551708 15.38741453 10.04146866 16.86683417 8 19 C4.8125 19.75 4.8125 19.75 2 20 C2.33 18.68 2.66 17.36 3 16 C1.02 16 -0.96 16 -3 16 C-3 16.66 -3 17.32 -3 18 C-1.68 18.33 -0.36 18.66 1 19 C1 19.33 1 19.66 1 20 C-0.41396973 20.13595863 -1.83176684 20.23243845 -3.25 20.3125 C-4.03890625 20.37050781 -4.8278125 20.42851563 -5.640625 20.48828125 C-8 20 -8 20 -10.28125 17.90625 C-12.37089089 14.37285722 -12.41447472 12.25824943 -12.25 8.1875 C-12.21390625 7.02605469 -12.1778125 5.86460938 -12.140625 4.66796875 C-12.07101563 3.34732422 -12.07101563 3.34732422 -12 2 C-6.25 1.875 -6.25 1.875 -4 3 C-4 5.31 -4 7.62 -4 10 C-4.99 10.33 -5.98 10.66 -7 11 C-7 11.99 -7 12.98 -7 14 C-4.24358584 13.50243908 -4.24358584 13.50243908 -2 12 C3.52941176 11.76470588 3.52941176 11.76470588 6 13 C6.20169442 10.93829743 6.20169442 10.93829743 4.8125 9.4375 C2.5879284 7.67318459 0.78211944 7.37596209 -2 7 C-1.34 4.69 -0.68 2.38 0 0 Z " fill="#D2A378" transform="translate(72,43)"/>
<path d="M0 0 C3.90160892 1.26538668 6.02418805 2.34474789 8 6 C9.43771751 11.63106023 8.77214116 16.95199501 8.26171875 22.69921875 C7.53483695 30.95968935 7.53483695 30.95968935 9 39 C6.35261084 40.4606285 5.10551666 41 2 41 C1.95512451 40.43192627 1.91024902 39.86385254 1.86401367 39.27856445 C1.03522038 29.06778977 0.21063173 19.183623 -2.609375 9.30078125 C-2.73828125 8.54152344 -2.8671875 7.78226562 -3 7 C-2.34 6.34 -1.68 5.68 -1 5 C-0.35232207 2.42938689 -0.35232207 2.42938689 0 0 Z " fill="#2C242C" transform="translate(85,83)"/>
<path d="M0 0 C2.92540704 0.62687294 5.4835249 1.35127493 8 3 C8.75 5.125 8.75 5.125 9 7 C9.66 6.01 10.32 5.02 11 4 C11.33 4.99 11.66 5.98 12 7 C14.00016466 8.20882096 14.00016466 8.20882096 16 9 C16 8.34 16 7.68 16 7 C16.99 7 17.98 7 19 7 C19.36237263 8.62318979 19.71465157 10.2486358 20.0625 11.875 C20.35833984 13.23238281 20.35833984 13.23238281 20.66015625 14.6171875 C21 17 21 17 20 19 C20.99 19 21.98 19 23 19 C22.67 16.69 22.34 14.38 22 12 C22.66 11.67 23.32 11.34 24 11 C24 15.95 24 20.9 24 26 C22 26 22 26 19.625 23.6875 C18.75875 22.800625 17.8925 21.91375 17 21 C15.68824014 19.97186389 14.3630107 18.95915568 13 18 C13 19.32 13 20.64 13 22 C8.16743695 21.58578031 6.17320782 19.53586014 3 16 C4.98 15.67 6.96 15.34 9 15 C9 14.34 9 13.68 9 13 C9.99 13 10.98 13 12 13 C11.34 12.67 10.68 12.34 10 12 C10 11.34 10 10.68 10 10 C9.34 10 8.68 10 8 10 C8 10.66 8 11.32 8 12 C6.68 11.67 5.36 11.34 4 11 C3.67 11.99 3.34 12.98 3 14 C3 13.34 3 12.68 3 12 C2.34 11.67 1.68 11.34 1 11 C1 9.68 1 8.36 1 7 C-0.32 7.33 -1.64 7.66 -3 8 C-3.625 5.625 -3.625 5.625 -4 3 C-3.34 2.34 -2.68 1.68 -2 1 C-2 1.66 -2 2.32 -2 3 C-1.01 3 -0.02 3 1 3 C0.67 2.01 0.34 1.02 0 0 Z " fill="#D0B9D4" transform="translate(82,65)"/>
<path d="M0 0 C8.76535257 1.4608921 16.10858491 5.01795308 23.671875 9.62890625 C26.02693998 11.12505545 26.02693998 11.12505545 29 12 C28.67 14.97 28.34 17.94 28 21 C27.01 21 26.02 21 25 21 C25 20.01 25 19.02 25 18 C24.5875 18.969375 24.175 19.93875 23.75 20.9375 C22 24 22 24 20 25 C18 25 18 25 15 23 C15 23.66 15 24.32 15 25 C13.68 24.34 12.36 23.68 11 23 C11 21.68 11 20.36 11 19 C11.33 19.99 11.66 20.98 12 22 C12.62648438 21.7834375 13.25296875 21.566875 13.8984375 21.34375 C14.71570313 21.0653125 15.53296875 20.786875 16.375 20.5 C17.18710938 20.2215625 17.99921875 19.943125 18.8359375 19.65625 C21 19 21 19 23 19 C22.75568004 16.45748398 22.75568004 16.45748398 21 14 C18.47453389 13.20778273 16.03190359 12.80839945 13.41015625 12.45703125 C11 12 11 12 8 10 C7.67 10.66 7.34 11.32 7 12 C7 11.34 7 10.68 7 10 C5.68 10 4.36 10 3 10 C3.66 11.65 4.32 13.3 5 15 C3.68 14.67 2.36 14.34 1 14 C-0.14806378 4.58997722 -0.14806378 4.58997722 0 0 Z " fill="#131013" transform="translate(78,1)"/>
<path d="M0 0 C3.3 0.33 6.6 0.66 10 1 C10 3 10 5 10 7 C10.99 7.66 11.98 8.32 13 9 C13.1875 11.625 13.1875 11.625 13 14 C12.01 14 11.02 14 10 14 C10.33 16.64 10.66 19.28 11 22 C11.66 22 12.32 22 13 22 C14.125 26.75 14.125 26.75 13 29 C12.34 29 11.68 29 11 29 C10.67 28.01 10.34 27.02 10 26 C6.71023192 24.90341064 5.28696233 25.20046862 2 26 C2 23 2 20 2 17 C1.34 17 0.68 17 0 17 C0 11.39 0 5.78 0 0 Z " fill="#BB9985" transform="translate(42,47)"/>
<path d="M0 0 C0.33 0 0.66 0 1 0 C1 2.64 1 5.28 1 8 C2.03125 7.979375 3.0625 7.95875 4.125 7.9375 C7.55152969 7.99276661 10.64572414 8.34550715 14 9 C14 9.66 14 10.32 14 11 C12.68 11 11.36 11 10 11 C10 13.64 10 16.28 10 19 C11.65 19.33 13.3 19.66 15 20 C15 20.66 15 21.32 15 22 C15.99 22.33 16.98 22.66 18 23 C17.67 24.32 17.34 25.64 17 27 C16.34 26.67 15.68 26.34 15 26 C15 25.34 15 24.68 15 24 C10.52116304 24.44703986 10.52116304 24.44703986 7 27 C6.01 26.67 5.02 26.34 4 26 C4 25.01 4 24.02 4 23 C4.66 22.67 5.32 22.34 6 22 C6.40729228 19.67843403 6.74438677 17.3431213 7 15 C4.36 14.67 1.72 14.34 -1 14 C-0.91266027 16.08410658 -0.80447722 18.16734669 -0.6875 20.25 C-0.62949219 21.41015625 -0.57148437 22.5703125 -0.51171875 23.765625 C0.02735628 27.17290841 0.486421 28.66596236 3 31 C5.26300895 31.6921369 5.26300895 31.6921369 7.6875 31.75 C8.49574219 31.80671875 9.30398437 31.8634375 10.13671875 31.921875 C10.75160156 31.94765625 11.36648437 31.9734375 12 32 C12 32.33 12 32.66 12 33 C11.30132812 33.04898438 10.60265625 33.09796875 9.8828125 33.1484375 C8.97273438 33.22320312 8.06265625 33.29796875 7.125 33.375 C6.22007813 33.44460937 5.31515625 33.51421875 4.3828125 33.5859375 C1.82058097 33.79568132 1.82058097 33.79568132 0 36 C-6.462815 16.13761524 -6.462815 16.13761524 -3 8 C-2.34 7.34 -1.68 6.68 -1 6 C-0.60235737 4.01178687 -0.26224651 2.01055661 0 0 Z " fill="#BB8A58" transform="translate(61,31)"/>
<path d="M0 0 C0.33 0.99 0.66 1.98 1 3 C1.8971875 3.433125 1.8971875 3.433125 2.8125 3.875 C5.70700387 5.36360199 7.05158519 7.42306429 9 10 C9.98230498 11.0173873 10.97469597 12.02596117 12 13 C10.33388095 13.042721 8.66617115 13.04063832 7 13 C6.67 12.67 6.34 12.34 6 12 C5.67 12.99 5.34 13.98 5 15 C5.66 15 6.32 15 7 15 C7.6875 16.75 7.6875 16.75 8 19 C6.6875 21.25 6.6875 21.25 5 23 C4.34 23 3.68 23 3 23 C3 25.64 3 28.28 3 31 C3.99 31.33 4.98 31.66 6 32 C5.67 32.99 5.34 33.98 5 35 C3.35 34.67 1.7 34.34 0 34 C-0.33 30.37 -0.66 26.74 -1 23 C-8.92 22.34 -16.84 21.68 -25 21 C-25 20.34 -25 19.68 -25 19 C-12.625 18.01 -12.625 18.01 0 17 C0 11.39 0 5.78 0 0 Z " fill="#5D351A" transform="translate(47,13)"/>
<path d="M0 0 C0 0.99 0 1.98 0 3 C0.66 3 1.32 3 2 3 C2.33 3.99 2.66 4.98 3 6 C3.33 5.01 3.66 4.02 4 3 C7.875 4.75 7.875 4.75 9 7 C9.039992 8.99960012 9.04346799 11.00047242 9 13 C9.66 13.33 10.32 13.66 11 14 C10.67 15.32 10.34 16.64 10 18 C9.236875 17.67 8.47375 17.34 7.6875 17 C5.00930865 15.82563314 5.00930865 15.82563314 2 16 C2 14.68 2 13.36 2 12 C-0.31 11.34 -2.62 10.68 -5 10 C-5 10.66 -5 11.32 -5 12 C-6.32 12 -7.64 12 -9 12 C-9.33 14.31 -9.66 16.62 -10 19 C-10.33 19 -10.66 19 -11 19 C-11 16.36 -11 13.72 -11 11 C-12.258125 11.061875 -13.51625 11.12375 -14.8125 11.1875 C-18.72231986 11.20826011 -18.72231986 11.20826011 -21 9.5 C-21.33 9.005 -21.66 8.51 -22 8 C-19.69 8 -17.38 8 -15 8 C-15.33 7.34 -15.66 6.68 -16 6 C-16.99 5.67 -17.98 5.34 -19 5 C-19 4.34 -19 3.68 -19 3 C-17.02 3 -15.04 3 -13 3 C-13.33 4.32 -13.66 5.64 -14 7 C-9.18877153 5.47444034 -9.18877153 5.47444034 -6 2 C-3.85118612 0.75230162 -2.50320403 0 0 0 Z " fill="#9B5B44" transform="translate(88,56)"/>
<path d="M0 0 C1.95825873 -0.02694851 3.91662226 -0.04637218 5.875 -0.0625 C6.96554688 -0.07410156 8.05609375 -0.08570313 9.1796875 -0.09765625 C12 0 12 0 14 1 C14.37890625 3.14453125 14.37890625 3.14453125 14.5625 5.8125 C14.84851005 10.49083777 14.84851005 10.49083777 16 15 C16.99 15.66 17.98 16.32 19 17 C16.69 17.66 14.38 18.32 12 19 C11.67 18.34 11.34 17.68 11 17 C10.01 17.33 9.02 17.66 8 18 C7.67 16.68 7.34 15.36 7 14 C5.68 13.67 4.36 13.34 3 13 C3 12.01 3 11.02 3 10 C2.38125 9.938125 1.7625 9.87625 1.125 9.8125 C-1 9 -1 9 -2.25 6.4375 C-2.4975 5.633125 -2.745 4.82875 -3 4 C-1.68 3.67 -0.36 3.34 1 3 C0.67 2.01 0.34 1.02 0 0 Z " fill="#251E1E" transform="translate(64,0)"/>
<path d="M0 0 C6.64615385 1.47692308 6.64615385 1.47692308 8.4375 4.125 C8.7159375 5.053125 8.7159375 5.053125 9 6 C8.34 6 7.68 6 7 6 C7.99 7.32 8.98 8.64 10 10 C9.01 10.495 9.01 10.495 8 11 C8.309375 11.928125 8.61875 12.85625 8.9375 13.8125 C10.13704425 17.9686674 10.44958212 22.0986004 10.78125 26.3984375 C11.0252642 29.30046353 11.45873743 32.13904073 12 35 C10.35 35 8.7 35 7 35 C4.86186705 27.93768206 3.27051818 20.78999261 1.8125 13.5625 C1.63364258 12.68625977 1.45478516 11.81001953 1.27050781 10.90722656 C1.02252441 9.65570801 1.02252441 9.65570801 0.76953125 8.37890625 C0.62104736 7.6319751 0.47256348 6.88504395 0.31958008 6.11547852 C0 4 0 4 0 0 Z " fill="#67676D" transform="translate(69,92)"/>
<path d="M0 0 C1.2065625 0.2475 1.2065625 0.2475 2.4375 0.5 C6.65887352 1.09247348 10.74664545 1.08506709 15 1 C15.66 2.32 16.32 3.64 17 5 C12.545 5.495 12.545 5.495 8 6 C6.33445973 11.30039859 4.72724594 16.47293087 4 22 C1.69 21.34 -0.62 20.68 -3 20 C-3 17.36 -3 14.72 -3 12 C-2.34 12 -1.68 12 -1 12 C0.47047336 8.08936776 0.47047336 8.08936776 1 4 C0.34 4 -0.32 4 -1 4 C-0.67 2.68 -0.34 1.36 0 0 Z " fill="#2A1C14" transform="translate(53,24)"/>
<path d="M0 0 C6.84520925 -0.43692825 13.11344474 0.67667503 18.5625 5.0625 C20 7 20 7 20 9 C16.37 9.99 12.74 10.98 9 12 C8.67 11.34 8.34 10.68 8 10 C7.67 10.33 7.34 10.66 7 11 C5.00041636 11.04080783 2.99954746 11.04254356 1 11 C-0.06125335 7.28561327 0 3.85305154 0 0 Z " fill="#C19DA5" transform="translate(81,11)"/>
<path d="M0 0 C0.185625 0.9590625 0.185625 0.9590625 0.375 1.9375 C0.684375 2.9584375 0.684375 2.9584375 1 4 C1.66 4.33 2.32 4.66 3 5 C2.67 5.99 2.34 6.98 2 8 C1.83322718 11.58343976 1.83322718 11.58343976 2 15 C2.33 15.33 2.66 15.66 3 16 C3.04080783 17.99958364 3.04254356 20.00045254 3 22 C3.66 22.33 4.32 22.66 5 23 C5.40729228 25.32156597 5.74438677 27.6568787 6 30 C3.525 29.01 3.525 29.01 1 28 C1 29.65 1 31.3 1 33 C1.66 33.33 2.32 33.66 3 34 C1.68 34.66 0.36 35.32 -1 36 C-3 34 -3 34 -3.23046875 32.14453125 C-3.21628906 31.37496094 -3.20210938 30.60539062 -3.1875 29.8125 C-3.17203125 28.925625 -3.1565625 28.03875 -3.140625 27.125 C-2.92253639 22.2785865 -2.53450553 17.44662633 -2.12109375 12.61328125 C-1.99796083 8.93915375 -2.37340418 5.61568998 -3 2 C-2.01 2 -1.02 2 0 2 C0 1.34 0 0.68 0 0 Z " fill="#9F6875" transform="translate(95,85)"/>
<path d="M0 0 C1.32 0 2.64 0 4 0 C4 7.26 4 14.52 4 22 C3.01 21.67 2.02 21.34 1 21 C1.66 21 2.32 21 3 21 C3 20.34 3 19.68 3 19 C0.69 18.67 -1.62 18.34 -4 18 C-3.34 16.35 -2.68 14.7 -2 13 C-2.61875 12.938125 -3.2375 12.87625 -3.875 12.8125 C-6 12 -6 12 -7.25 9.4375 C-7.4975 8.633125 -7.745 7.82875 -8 7 C-5.69 6.34 -3.38 5.68 -1 5 C-0.67 3.35 -0.34 1.7 0 0 Z " fill="#D3ACF7" transform="translate(102,35)"/>
<path d="M0 0 C0.54785156 0.721875 1.09570312 1.44375 1.66015625 2.1875 C4.0697656 5.08385848 6.62148804 7.50035 9.4375 10 C13.07529511 13.238093 16.58611524 16.53035306 20 20 C17.875 21.625 17.875 21.625 15 23 C11.42781614 22.42845058 9.64400891 21.85009176 7.4375 18.9375 C6.963125 17.968125 6.48875 16.99875 6 16 C5.10545407 14.45758596 4.20952278 12.91597489 3.3125 11.375 C1.65849563 8.51586559 1 7.36049511 1 4 C0.01 3.67 -0.98 3.34 -2 3 C-1.34 2.01 -0.68 1.02 0 0 Z " fill="#666467" transform="translate(59,68)"/>
<path d="M0 0 C3.3 0 6.6 0 10 0 C10.33 0.99 10.66 1.98 11 3 C10.01 3.66 9.02 4.32 8 5 C8.79117904 6.99983534 8.79117904 6.99983534 10 9 C10.99 9.33 11.98 9.66 13 10 C13.33 10.99 13.66 11.98 14 13 C15.65 13.33 17.3 13.66 19 14 C18.34 15.65 17.68 17.3 17 19 C14.375 19.5625 14.375 19.5625 11 19 C6.03371317 13.73498915 3.09023752 6.45314306 0 0 Z " fill="#171213" transform="translate(54,0)"/>
<path d="M0 0 C3.3 0.33 6.6 0.66 10 1 C10 3 10 5 10 7 C10.99 7.66 11.98 8.32 13 9 C13.1875 11.625 13.1875 11.625 13 14 C9.9168649 12.80100302 6.93720508 11.52299523 4 10 C4 10.99 4 11.98 4 13 C3.01 13 2.02 13 1 13 C0.67 13.66 0.34 14.32 0 15 C0 10.05 0 5.1 0 0 Z " fill="#8E8E86" transform="translate(42,47)"/>
<path d="M0 0 C0.99 0.33 1.98 0.66 3 1 C3.92391818 3.57377207 4.62719713 5.97808782 5.25 8.625 C5.435625 9.32496094 5.62125 10.02492188 5.8125 10.74609375 C6.96082555 15.43508975 7.151815 19.21600649 6 24 C3.9375 25.4375 3.9375 25.4375 2 26 C2 25.34 2 24.68 2 24 C1.34 24 0.68 24 0 24 C-0.33 21.36 -0.66 18.72 -1 16 C-0.01 16 0.98 16 2 16 C1.72965366 13.56282742 1.72965366 13.56282742 1 11 C0.01 10.34 -0.98 9.68 -2 9 C-1.125 1.125 -1.125 1.125 0 0 Z " fill="#DEC6B2" transform="translate(53,45)"/>
<path d="M0 0 C0.66 0.33 1.32 0.66 2 1 C1.01 2.485 1.01 2.485 0 4 C0.99 3.67 1.98 3.34 3 3 C3.66 3.33 4.32 3.66 5 4 C5 3.34 5 2.68 5 2 C7.90600261 0.74335022 9.79604584 0 13 0 C13 0.66 13 1.32 13 2 C11.68 2 10.36 2 9 2 C9 4.64 9 7.28 9 10 C10.65 10.33 12.3 10.66 14 11 C14 11.66 14 12.32 14 13 C14.99 13.33 15.98 13.66 17 14 C16.67 15.32 16.34 16.64 16 18 C15.34 17.67 14.68 17.34 14 17 C14 16.34 14 15.68 14 15 C9.52116304 15.44703986 9.52116304 15.44703986 6 18 C5.01 17.67 4.02 17.34 3 17 C3 16.01 3 15.02 3 14 C3.66 13.67 4.32 13.34 5 13 C5.40729228 10.67843403 5.74438677 8.3431213 6 6 C3.36 5.67 0.72 5.34 -2 5 C-2 6.65 -2 8.3 -2 10 C-2.33 10 -2.66 10 -3 10 C-3.36923077 4.58461538 -3.36923077 4.58461538 -1.5 1.625 C-1.005 1.08875 -0.51 0.5525 0 0 Z " fill="#D0A37B" transform="translate(62,40)"/>
<path d="M0 0 C0.99 0 1.98 0 3 0 C2.67 2.64 2.34 5.28 2 8 C3.32 8.33 4.64 8.66 6 9 C6.33 6.03 6.66 3.06 7 0 C7.99 0 8.98 0 10 0 C10 3.96 10 7.92 10 12 C7.36 11.67 4.72 11.34 2 11 C1.67 12.32 1.34 13.64 1 15 C0.34 15 -0.32 15 -1 15 C-1 13.68 -1 12.36 -1 11 C-2.98 11 -4.96 11 -7 11 C-6.34 9.02 -5.68 7.04 -5 5 C-3.35 5 -1.7 5 0 5 C0 3.35 0 1.7 0 0 Z " fill="#A77453" transform="translate(31,72)"/>
<path d="M0 0 C0 5.28 0 10.56 0 16 C0.99 16.33 1.98 16.66 3 17 C1.35 16.67 -0.3 16.34 -2 16 C-2.33 12.37 -2.66 8.74 -3 5 C-10.92 4.34 -18.84 3.68 -27 3 C-27 2.34 -27 1.68 -27 1 C-17.95933872 -0.07262083 -9.09173238 -0.07770711 0 0 Z " fill="#684B39" transform="translate(49,31)"/>
<path d="M0 0 C1.72985242 0.11512153 3.45888751 0.24255677 5.1875 0.375 C6.15042969 0.44460937 7.11335938 0.51421875 8.10546875 0.5859375 C11.01508938 1.00215853 13.32890774 1.79874096 16 3 C16 3.99 16 4.98 16 6 C16.99 6.33 17.98 6.66 19 7 C11.75289981 9.10302072 6.9166056 9.10746049 0 6 C0 4.02 0 2.04 0 0 Z " fill="#F1C99E" transform="translate(63,32)"/>
<path d="M0 0 C2 3 2 3 1.7578125 5.04296875 C1.171875 7.02864583 0.5859375 9.01432292 0 11 C0.928125 10.62875 1.85625 10.2575 2.8125 9.875 C3.864375 9.58625 4.91625 9.2975 6 9 C6.99 9.66 7.98 10.32 9 11 C8.9375 13.8125 8.9375 13.8125 8 17 C4.46578404 18.93381628 0.94903334 20.21019333 -3 21 C-3.33 19.68 -3.66 18.36 -4 17 C-2.68 16.67 -1.36 16.34 0 16 C-0.33 14.989375 -0.66 13.97875 -1 12.9375 C-2.07001321 9.24520089 -2.15704155 5.84751793 -2 2 C-1.34 2 -0.68 2 0 2 C0 1.34 0 0.68 0 0 Z " fill="#8E8C86" transform="translate(44,62)"/>
<path d="M0 0 C0.99 0.33 1.98 0.66 3 1 C2.67 2.32 2.34 3.64 2 5 C1.34 5 0.68 5 0 5 C-0.061875 5.78375 -0.12375 6.5675 -0.1875 7.375 C-0.455625 8.24125 -0.72375 9.1075 -1 10 C-3.5 11.1875 -3.5 11.1875 -6 12 C-6.33 12.66 -6.66 13.32 -7 14 C-5.27773504 17.24849977 -5.27773504 17.24849977 -2 18 C-2.33 18.99 -2.66 19.98 -3 21 C-6.96 21.495 -6.96 21.495 -11 22 C-10.67 21.34 -10.34 20.68 -10 20 C-9.34 20 -8.68 20 -8 20 C-8.350625 18.906875 -8.70125 17.81375 -9.0625 16.6875 C-10 13 -10 13 -9 10 C-8.34 10 -7.68 10 -7 10 C-7 8.68 -7 7.36 -7 6 C-6.34 6 -5.68 6 -5 6 C-5 5.34 -5 4.68 -5 4 C-4.01 4 -3.02 4 -2 4 C-2 3.01 -2 2.02 -2 1 C-1.34 0.67 -0.68 0.34 0 0 Z " fill="#855446" transform="translate(102,30)"/>
<path d="M0 0 C2.97 0.495 2.97 0.495 6 1 C6 1.99 6 2.98 6 4 C5.34 4 4.68 4 4 4 C4 6.64 4 9.28 4 12 C3.01 12.33 2.02 12.66 1 13 C0.67 13.99 0.34 14.98 0 16 C0 14.35 0 12.7 0 11 C-0.99 11 -1.98 11 -3 11 C-3 14.3 -3 17.6 -3 21 C-3.99 21.33 -4.98 21.66 -6 22 C-5.34 16.06 -4.68 10.12 -4 4 C-3.34 4.33 -2.68 4.66 -2 5 C-1.34 3.35 -0.68 1.7 0 0 Z " fill="#B87F67" transform="translate(89,36)"/>
<path d="M0 0 C2.375 0.1875 2.375 0.1875 5 1 C6.125 3.5 6.125 3.5 7 6 C7.99 6.33 8.98 6.66 10 7 C10.061875 7.70125 10.12375 8.4025 10.1875 9.125 C10.99378423 11.97800572 11.67501404 13.01742433 13.5625 15.1875 C16 18 16 18 16 20 C16.99 20 17.98 20 19 20 C19 19.34 19 18.68 19 18 C19.639375 17.87625 20.27875 17.7525 20.9375 17.625 C21.618125 17.41875 22.29875 17.2125 23 17 C23.33 16.34 23.66 15.68 24 15 C24.33 15.99 24.66 16.98 25 18 C23.375 20.0625 23.375 20.0625 21 22 C18.125 22.1875 18.125 22.1875 15 21 C13.25412362 19.29963224 11.77379849 17.53121953 10.296875 15.59375 C9.07108006 13.86408353 9.07108006 13.86408353 7 13 C6.54625 12.071875 6.0925 11.14375 5.625 10.1875 C4.18747143 6.96229984 4.18747143 6.96229984 1.8125 4.8125 C1.214375 4.214375 0.61625 3.61625 0 3 C0 2.01 0 1.02 0 0 Z " fill="#D48135" transform="translate(41,3)"/>
<path d="M0 0 C0.99 0.33 1.98 0.66 3 1 C2.34 1 1.68 1 1 1 C1 12.55 1 24.1 1 36 C1.99 36 2.98 36 4 36 C4 40.62 4 45.24 4 50 C2.68 50 1.36 50 0 50 C0 33.5 0 17 0 0 Z " fill="#2E1D2C" transform="translate(21,65)"/>
<path d="M0 0 C5.63800905 1.2081448 5.63800905 1.2081448 8 3 C9.42682927 9.14634146 9.42682927 9.14634146 8 12 C6.68 11.67 5.36 11.34 4 11 C3.67 11.99 3.34 12.98 3 14 C3 13.34 3 12.68 3 12 C2.34 11.67 1.68 11.34 1 11 C1 9.68 1 8.36 1 7 C-0.32 7.33 -1.64 7.66 -3 8 C-3.625 5.625 -3.625 5.625 -4 3 C-3.34 2.34 -2.68 1.68 -2 1 C-2 1.66 -2 2.32 -2 3 C-1.01 3 -0.02 3 1 3 C0.67 2.01 0.34 1.02 0 0 Z " fill="#C289A9" transform="translate(82,65)"/>
<path d="M0 0 C0.33 0 0.66 0 1 0 C1 1.98 1 3.96 1 6 C1.66 6 2.32 6 3 6 C3 5.01 3 4.02 3 3 C5.64 3 8.28 3 11 3 C12.29550413 5.59100826 11.96400816 7.19424369 11.6875 10.0625 C11.56955078 11.41021484 11.56955078 11.41021484 11.44921875 12.78515625 C11.30097656 13.51605469 11.15273437 14.24695313 11 15 C10.01 15.495 10.01 15.495 9 16 C8.67 14.02 8.34 12.04 8 10 C6.68 10 5.36 10 4 10 C3.67 9.34 3.34 8.68 3 8 C0.47266765 7.34444881 0.47266765 7.34444881 -2 7 C-1.34 4.69 -0.68 2.38 0 0 Z " fill="#E8BD96" transform="translate(72,43)"/>
<path d="M0 0 C2.97 0.33 5.94 0.66 9 1 C9.66 7.6 10.32 14.2 11 21 C8.69 19.35 6.38 17.7 4 16 C4.66 15.34 5.32 14.68 6 14 C6.58402133 11.58582128 6.58402133 11.58582128 6 9 C4.34997172 7.64613064 2.6825613 6.31321858 1 5 C0.1875 2.25 0.1875 2.25 0 0 Z " fill="#E4B991" transform="translate(68,66)"/>
<path d="M0 0 C1.2065625 0.2475 1.2065625 0.2475 2.4375 0.5 C6.65887352 1.09247348 10.74664545 1.08506709 15 1 C15.66 2.32 16.32 3.64 17 5 C12.545 5.495 12.545 5.495 8 6 C7.34 7.65 6.68 9.3 6 11 C5.01 11 4.02 11 3 11 C3 9.68 3 8.36 3 7 C2.34 6.67 1.68 6.34 1 6 C1 5.34 1 4.68 1 4 C0.34 4 -0.32 4 -1 4 C-0.67 2.68 -0.34 1.36 0 0 Z " fill="#16100E" transform="translate(53,24)"/>
<path d="M0 0 C0.66 0.33 1.32 0.66 2 1 C2 1.99 2 2.98 2 4 C3.32 4.33 4.64 4.66 6 5 C5.814375 6.0725 5.62875 7.145 5.4375 8.25 C5.0695432 11.40391546 4.95534657 13.09818492 6 16 C4.02 17.32 2.04 18.64 0 20 C-0.66 19.67 -1.32 19.34 -2 19 C-2.625 15.9375 -2.625 15.9375 -3 13 C-1.68 13.33 -0.36 13.66 1 14 C1.09802862 12.03522903 1.09802862 12.03522903 0.5 10.375 C-0.23279413 6.89422787 -0.05923988 3.5543931 0 0 Z " fill="#6B3971" transform="translate(98,99)"/>
<path d="M0 0 C0.33 0.99 0.66 1.98 1 3 C0.01 3 -0.98 3 -2 3 C-2 3.66 -2 4.32 -2 5 C-5.7165405 7.32283781 -9.67342261 7.9571626 -14 8 C-17 7.0625 -17 7.0625 -19 6 C-19 5.01 -19 4.02 -19 3 C-17.783125 3.061875 -16.56625 3.12375 -15.3125 3.1875 C-11.36367073 3.20142885 -9.2737895 2.27346493 -6 0 C-2.44067797 -1.22033898 -2.44067797 -1.22033898 0 0 Z " fill="#423325" transform="translate(52,80)"/>
<path d="M0 0 C4.93261456 4.60377358 4.93261456 4.60377358 6 8 C5.78276699 14.19114078 5.78276699 14.19114078 3.125 16.9375 C1 18 1 18 -2 18 C-2 17.34 -2 16.68 -2 16 C-1.34 15.67 -0.68 15.34 0 15 C-0.12568359 13.62714844 -0.12568359 13.62714844 -0.25390625 12.2265625 C-0.40666016 10.44378906 -0.40666016 10.44378906 -0.5625 8.625 C-0.66691406 7.44164063 -0.77132812 6.25828125 -0.87890625 5.0390625 C-1 2 -1 2 0 0 Z " fill="#201E23" transform="translate(78,73)"/>
<path d="M0 0 C4.54805635 -0.17835515 7.8794254 0.00214565 12 2 C11.34 2.391875 10.68 2.78375 10 3.1875 C7.70704279 4.84583099 7.70704279 4.84583099 7.8125 7.625 C7.9053125 8.800625 7.9053125 8.800625 8 10 C7 11 7 11 3.9375 11.0625 C2.968125 11.041875 1.99875 11.02125 1 11 C-0.06125335 7.28561327 0 3.85305154 0 0 Z " fill="#CB9E7B" transform="translate(81,11)"/>
<path d="M0 0 C3.39649799 1.132166 3.60211212 1.5252475 5.26171875 4.4921875 C5.85629883 5.54986328 5.85629883 5.54986328 6.46289062 6.62890625 C6.86701172 7.37011719 7.27113281 8.11132812 7.6875 8.875 C8.10322266 9.60847656 8.51894531 10.34195312 8.94726562 11.09765625 C12 16.60160099 12 16.60160099 12 20 C11.01 20.33 10.02 20.66 9 21 C8.443125 19.845 7.88625 18.69 7.3125 17.5 C5.43241422 13.71287381 3.28406008 10.18854867 0.953125 6.6640625 C0 5 0 5 0 3 C-0.66 3 -1.32 3 -2 3 C-2 2.34 -2 1.68 -2 1 C-1.34 0.67 -0.68 0.34 0 0 Z " fill="#F29876" transform="translate(52,0)"/>
<path d="M0 0 C1.98 0.99 1.98 0.99 4 2 C4 2.99 4 3.98 4 5 C6.475 5.99 6.475 5.99 9 7 C9.07427838 10.34252724 9.06546953 12.8035914 8 16 C7.96125079 17.66621616 7.9549714 19.33394172 8 21 C7.01 21 6.02 21 5 21 C4.67 17.04 4.34 13.08 4 9 C3.01 9 2.02 9 1 9 C0.67 6.03 0.34 3.06 0 0 Z " fill="#AE8799" transform="translate(97,63)"/>
<path d="M0 0 C1.98 0 3.96 0 6 0 C6 0.66 6 1.32 6 2 C4.35 2 2.7 2 1 2 C-0.26305335 7.07476794 -1.27036084 11.72796354 -1 17 C-0.01 17 0.98 17 2 17 C1.34 19.97 0.68 22.94 0 26 C-0.99 26 -1.98 26 -3 26 C-3 18.08 -3 10.16 -3 2 C-2.01 2 -1.02 2 0 2 C0 1.34 0 0.68 0 0 Z " fill="#7A5891" transform="translate(25,75)"/>
<path d="M0 0 C0.61875 0.639375 1.2375 1.27875 1.875 1.9375 C3.82597612 4.03883584 3.82597612 4.03883584 6 5 C6 4.34 6 3.68 6 3 C6.99 3 7.98 3 9 3 C9.66 6.3 10.32 9.6 11 13 C10.01 13.66 9.02 14.32 8 15 C7.4225 14.030625 6.845 13.06125 6.25 12.0625 C3.802274 8.73087295 3.62595083 8.84605519 0 8 C-1.375 5.625 -1.375 5.625 -2 3 C-1.34 2.01 -0.68 1.02 0 0 Z " fill="#C8A1AA" transform="translate(92,69)"/>
<path d="M0 0 C7.75 -0.125 7.75 -0.125 10 1 C10.59355614 3.64860427 10.74209269 6.29197322 11 9 C9.02 9.99 9.02 9.99 7 11 C6.87625 10.071875 6.87625 10.071875 6.75 9.125 C6.21868674 6.82530563 6.21868674 6.82530563 4.0625 6.0625 C2 5 2 5 0.75 2.375 C0.5025 1.59125 0.255 0.8075 0 0 Z " fill="#BB9691" transform="translate(68,0)"/>
<path d="M0 0 C0.66 0 1.32 0 2 0 C3.76171875 2.5546875 3.76171875 2.5546875 5.6875 5.875 C6.33074219 6.96554688 6.97398438 8.05609375 7.63671875 9.1796875 C8.08660156 10.11039063 8.53648438 11.04109375 9 12 C8.67 12.66 8.34 13.32 8 14 C6.35 13.67 4.7 13.34 3 13 C3 12.01 3 11.02 3 10 C2.38125 9.938125 1.7625 9.87625 1.125 9.8125 C-1 9 -1 9 -2.25 6.4375 C-2.4975 5.633125 -2.745 4.82875 -3 4 C-1.68 3.67 -0.36 3.34 1 3 C0.67 2.01 0.34 1.02 0 0 Z " fill="#836465" transform="translate(64,0)"/>
<path d="M0 0 C4 2 4 2 5 4 C5.039992 5.99960012 5.04346799 8.00047242 5 10 C5.66 10.33 6.32 10.66 7 11 C6.67 12.32 6.34 13.64 6 15 C5.236875 14.67 4.47375 14.34 3.6875 14 C1.00930865 12.82563314 1.00930865 12.82563314 -2 13 C-1.34 8.71 -0.68 4.42 0 0 Z " fill="#956882" transform="translate(92,59)"/>
<path d="M0 0 C3.63 0 7.26 0 11 0 C11.33 0.99 11.66 1.98 12 3 C11.67 3.33 11.34 3.66 11 4 C12.98 5.32 14.96 6.64 17 8 C15.35 9.32 13.7 10.64 12 12 C11.34 11.67 10.68 11.34 10 11 C10 10.34 10 9.68 10 9 C9.34 9 8.68 9 8 9 C7.34 6.69 6.68 4.38 6 2 C4.35 2 2.7 2 1 2 C0.67 1.34 0.34 0.68 0 0 Z " fill="#1C1513" transform="translate(68,21)"/>
<path d="M0 0 C2.3125 -0.25 2.3125 -0.25 5 0 C6.875 1.8125 6.875 1.8125 8 4 C7.67 4.99 7.34 5.98 7 7 C6.67 5.68 6.34 4.36 6 3 C5.34 3 4.68 3 4 3 C4.53625 3.9075 5.0725 4.815 5.625 5.75 C7 9 7 9 6.1875 11.375 C5.795625 11.91125 5.40375 12.4475 5 13 C3.68 13 2.36 13 1 13 C1 10 1 7 1 4 C0.34 4 -0.32 4 -1 4 C-0.67 2.68 -0.34 1.36 0 0 Z " fill="#D3B5A0" transform="translate(43,60)"/>
<path d="M0 0 C0.33 0.66 0.66 1.32 1 2 C0.67 2.99 0.34 3.98 0 5 C0.99 5 1.98 5 3 5 C3 8.96 3 12.92 3 17 C2.34 17 1.68 17 1 17 C1 15.68 1 14.36 1 13 C-0.65 13 -2.3 13 -4 13 C-4.66 11.68 -5.32 10.36 -6 9 C-5.01 9 -4.02 9 -3 9 C-2.87625 8.2575 -2.7525 7.515 -2.625 6.75 C-2.04513299 4.19858515 -1.26291261 2.2732427 0 0 Z " fill="#A58186" transform="translate(103,18)"/>
<path d="M0 0 C1.0625 1.875 1.0625 1.875 2 4 C1.67 4.66 1.34 5.32 1 6 C1.66 6 2.32 6 3 6 C3.33 5.34 3.66 4.68 4 4 C4.33 4.33 4.66 4.66 5 5 C4.8125 8.4375 4.8125 8.4375 4 12 C1.9375 13.4375 1.9375 13.4375 0 14 C0 13.34 0 12.68 0 12 C-0.66 12 -1.32 12 -2 12 C-2.33 9.36 -2.66 6.72 -3 4 C-2.01 4 -1.02 4 0 4 C0 2.68 0 1.36 0 0 Z " fill="#EEDFCF" transform="translate(55,57)"/>
<path d="M0 0 C0.66 0 1.32 0 2 0 C2.66 2.31 3.32 4.62 4 7 C1.4345406 9.5654594 -0.47686668 9.54046087 -4 10 C-3.67 8.68 -3.34 7.36 -3 6 C-4.65 6 -6.3 6 -8 6 C-8.33 5.01 -8.66 4.02 -9 3 C-8 2 -8 2 -5.0625 1.875 C-2 2 -2 2 0 3 C0 2.01 0 1.02 0 0 Z " fill="#D9AE8C" transform="translate(78,53)"/>
<path d="M0 0 C0.66 0.33 1.32 0.66 2 1 C2 1.66 2 2.32 2 3 C2.99 2.34 3.98 1.68 5 1 C5.99 1.33 6.98 1.66 8 2 C8 3.32 8 4.64 8 6 C9.3303125 5.87625 9.3303125 5.87625 10.6875 5.75 C14.69008159 6.05208163 16.12835434 7.29727467 19 10 C19 9.34 19 8.68 19 8 C19.66 8.33 20.32 8.66 21 9 C20 11 20 11 17.75 11.875 C13.93390474 12.04845888 12.8922468 10.42141593 10 8 C5.83899037 6.04237632 1.54652911 4.71039517 -3 4 C-3 3.34 -3 2.68 -3 2 C-2.01 2 -1.02 2 0 2 C0 1.34 0 0.68 0 0 Z " fill="#B18689" transform="translate(74,16)"/>
<path d="M0 0 C0.33 0.99 0.66 1.98 1 3 C1.598125 3.28875 2.19625 3.5775 2.8125 3.875 C5.70700387 5.36360199 7.05158519 7.42306429 9 10 C9.98230498 11.0173873 10.97469597 12.02596117 12 13 C10.33388095 13.042721 8.66617115 13.04063832 7 13 C6.67 12.67 6.34 12.34 6 12 C5.34 13.32 4.68 14.64 4 16 C3.67 14.35 3.34 12.7 3 11 C2.67 12.98 2.34 14.96 2 17 C1.67 17 1.34 17 1 17 C0.67 11.39 0.34 5.78 0 0 Z " fill="#422514" transform="translate(47,13)"/>
<path d="M0 0 C0.99 0.33 1.98 0.66 3 1 C3 1.66 3 2.32 3 3 C3.99 3.33 4.98 3.66 6 4 C10.35839656 8.01789683 13.07449715 12.43743621 15 18 C15 18.99 15 19.98 15 21 C14.34 21 13.68 21 13 21 C11.2734375 18.91796875 11.2734375 18.91796875 9.375 16.1875 C8.74335937 15.29417969 8.11171875 14.40085937 7.4609375 13.48046875 C6 11 6 11 6 8 C4.68870078 6.64499081 3.35308313 5.31328657 2 4 C0.75 1.75 0.75 1.75 0 0 Z " fill="#F89444" transform="translate(44,2)"/>
<path d="M0 0 C5.78461538 3.44615385 5.78461538 3.44615385 6.875 6.25 C6.936875 7.11625 6.936875 7.11625 7 8 C4.525 7.01 4.525 7.01 2 6 C2 7.65 2 9.3 2 11 C2.66 11.33 3.32 11.66 4 12 C2.02 12.99 2.02 12.99 0 14 C-2 12 -2 12 -2.1953125 9.6171875 C-2.17210938 8.71226563 -2.14890625 7.80734375 -2.125 6.875 C-2.10695313 5.96492188 -2.08890625 5.05484375 -2.0703125 4.1171875 C-2.04710938 3.41851562 -2.02390625 2.71984375 -2 2 C-1.34 2 -0.68 2 0 2 C0 1.34 0 0.68 0 0 Z " fill="#AE7C8B" transform="translate(94,107)"/>
<path d="M0 0 C1.65 0.33 3.3 0.66 5 1 C5 4.3 5 7.6 5 11 C2.36 10.34 -0.28 9.68 -3 9 C-2.34 8.67 -1.68 8.34 -1 8 C-1.7763932 4.9254644 -1.7763932 4.9254644 -4 3 C-2.68 2.67 -1.36 2.34 0 2 C0 1.34 0 0.68 0 0 Z " fill="#D1B8E3" transform="translate(101,59)"/>
<path d="M0 0 C5.75 -0.125 5.75 -0.125 8 1 C8 3.31 8 5.62 8 8 C5.69 8 3.38 8 1 8 C-0.35439668 5.29120665 -0.06501451 2.99066732 0 0 Z " fill="#F3CDA8" transform="translate(60,45)"/>
<path d="M0 0 C2.375 -0.1875 2.375 -0.1875 5 0 C7.1519437 3.22791555 7.20086443 4.28400809 7 8 C6.34 7.67 5.68 7.34 5 7 C5 6.34 5 5.68 5 5 C2.36 5 -0.28 5 -3 5 C-3 5.99 -3 6.98 -3 8 C-3.66 8 -4.32 8 -5 8 C-5.2165625 6.824375 -5.2165625 6.824375 -5.4375 5.625 C-5.87798925 3.03578982 -5.87798925 3.03578982 -7 1 C-5.02 1 -3.04 1 -1 1 C-1 1.66 -1 2.32 -1 3 C-0.34 2.67 0.32 2.34 1 2 C0.67 1.34 0.34 0.68 0 0 Z " fill="#E3B68D" transform="translate(78,41)"/>
<path d="M0 0 C1.04449911 3.13349732 0.93423645 3.98968256 0 7 C-1.32 7 -2.64 7 -4 7 C-4.33 8.32 -4.66 9.64 -5 11 C-5.391875 10.525625 -5.78375 10.05125 -6.1875 9.5625 C-8.44966312 7.61235938 -10.04337034 7.22743305 -13 7 C-13.66 7.66 -14.32 8.32 -15 9 C-15.33 6.69 -15.66 4.38 -16 2 C-14.4221875 2.495 -14.4221875 2.495 -12.8125 3 C-8.57773008 4.11075932 -5.74565732 4.75487884 -1.6875 3 C-1.130625 2.67 -0.57375 2.34 0 2 C0 1.34 0 0.68 0 0 Z " fill="#3F4048" transform="translate(83,86)"/>
<path d="M0 0 C4.6515498 6.9773247 3.10193349 16.93592821 3 25 C2.34 25 1.68 25 1 25 C-0.00005304 21.99984088 -0.11575585 20.02576244 -0.09765625 16.89453125 C-0.09443359 15.91162109 -0.09121094 14.92871094 -0.08789062 13.91601562 C-0.07951172 12.89185547 -0.07113281 11.86769531 -0.0625 10.8125 C-0.05798828 9.77673828 -0.05347656 8.74097656 -0.04882812 7.67382812 C-0.0370401 5.11582734 -0.02058515 2.55794267 0 0 Z " fill="#4D4D57" transform="translate(84,100)"/>
<path d="M0 0 C1.65 0.33 3.3 0.66 5 1 C4.67 3.64 4.34 6.28 4 9 C-0.83256305 8.58578031 -2.82679218 6.53586014 -6 3 C-4.02 2.67 -2.04 2.34 0 2 C0 1.34 0 0.68 0 0 Z " fill="#CA9888" transform="translate(91,78)"/>
<path d="M0 0 C1.98 0 3.96 0 6 0 C6.6875 2.3125 6.6875 2.3125 7 5 C5.02605822 7.96091267 2.27566484 8.84909073 -1 10 C-1.125 3.375 -1.125 3.375 0 0 Z " fill="#3F2526" transform="translate(24,83)"/>
<path d="M0 0 C1.32 0 2.64 0 4 0 C4 5.61 4 11.22 4 17 C3.01 16.34 2.02 15.68 1 15 C0.875 12 0.875 12 1 9 C0.67 8.34 0.34 7.68 0 7 C-0.04022391 4.6670134 -0.04320247 2.33293334 0 0 Z " fill="#A57CB9" transform="translate(102,95)"/>
<path d="M0 0 C1.65420222 0.53739056 3.29833295 1.10586008 4.9375 1.6875 C5.85402344 2.00074219 6.77054688 2.31398437 7.71484375 2.63671875 C10 4 10 4 10.81640625 6.64453125 C10.87699219 7.42183594 10.93757813 8.19914062 11 9 C8.03 8.67 5.06 8.34 2 8 C2 6.68 2 5.36 2 4 C0.35 3.67 -1.3 3.34 -3 3 C-2.01 2.67 -1.02 2.34 0 2 C0 1.34 0 0.68 0 0 Z " fill="#B293BC" transform="translate(95,50)"/>
<path d="M0 0 C1.98 0 3.96 0 6 0 C5.67 1.32 5.34 2.64 5 4 C6.65 4 8.3 4 10 4 C10 4.66 10 5.32 10 6 C6.30513897 8.46324069 4.36706908 8.38991688 0 8 C-1.9375 6.5 -1.9375 6.5 -3 5 C-0.69 5 1.62 5 4 5 C3.67 4.34 3.34 3.68 3 3 C2.01 2.67 1.02 2.34 0 2 C0 1.34 0 0.68 0 0 Z " fill="#65493A" transform="translate(69,59)"/>
<path d="M0 0 C2.46800047 1.15173355 4.04783565 2.04783565 6 4 C6.4140625 6.1640625 6.4140625 6.1640625 6.625 8.625 C6.69976562 9.44226563 6.77453125 10.25953125 6.8515625 11.1015625 C6.92503906 12.04128906 6.92503906 12.04128906 7 13 C6.01 13 5.02 13 4 13 C3.67 13.99 3.34 14.98 3 16 C2.67 16 2.34 16 2 16 C2.226875 14.845 2.45375 13.69 2.6875 12.5 C3.33200418 7.6226711 1.98149771 4.43855488 0 0 Z " fill="#4E3528" transform="translate(94,82)"/>
<path d="M0 0 C8.44646925 4.03872437 8.44646925 4.03872437 12 7 C11.67 7.66 11.34 8.32 11 9 C1.40546697 7.25740319 1.40546697 7.25740319 -2 4 C-1.33333333 2.66666667 -0.66666667 1.33333333 0 0 Z " fill="#41291A" transform="translate(79,21)"/>
<path d="M0 0 C1.32 0 2.64 0 4 0 C3.67 2.97 3.34 5.94 3 9 C-0.63 9 -4.26 9 -8 9 C-7.67 8.01 -7.34 7.02 -7 6 C-5.02 5.67 -3.04 5.34 -1 5 C-0.67 3.35 -0.34 1.7 0 0 Z " fill="#B88EBB" transform="translate(102,35)"/>
<path d="M0 0 C0.8353125 1.0828125 0.8353125 1.0828125 1.6875 2.1875 C3.97909334 4.97457299 6.41459857 7.48641528 9 10 C8.34 11.32 7.68 12.64 7 14 C6.34 14 5.68 14 5 14 C1 7.375 1 7.375 1 4 C0.01 3.67 -0.98 3.34 -2 3 C-1.34 2.01 -0.68 1.02 0 0 Z " fill="#4F4D4E" transform="translate(59,68)"/>
<path d="M0 0 C2 2 2 2 2 5 C1.34 5 0.68 5 0 5 C0.33 6.65 0.66 8.3 1 10 C-0.32 10 -1.64 10 -3 10 C-3.33 12.31 -3.66 14.62 -4 17 C-4.33 17 -4.66 17 -5 17 C-5.33 14.03 -5.66 11.06 -6 8 C-5.01 7.67 -4.02 7.34 -3 7 C-3 6.34 -3 5.68 -3 5 C-3.99 4.67 -4.98 4.34 -6 4 C-4.7934375 3.566875 -4.7934375 3.566875 -3.5625 3.125 C-0.8673532 2.26737432 -0.8673532 2.26737432 0 0 Z " fill="#9E6F5F" transform="translate(82,58)"/>
<path d="M0 0 C0.66 0.33 1.32 0.66 2 1 C1.34 3.97 0.68 6.94 0 10 C-0.66 10 -1.32 10 -2 10 C-2.06058594 10.69867188 -2.12117188 11.39734375 -2.18359375 12.1171875 C-2.30927734 13.48230469 -2.30927734 13.48230469 -2.4375 14.875 C-2.51871094 15.77992187 -2.59992188 16.68484375 -2.68359375 17.6171875 C-3 20 -3 20 -4 22 C-4.66 22 -5.32 22 -6 22 C-5.34 16.06 -4.68 10.12 -4 4 C-3.34 4.33 -2.68 4.66 -2 5 C-1.34 3.35 -0.68 1.7 0 0 Z " fill="#8E5E62" transform="translate(89,36)"/>
<path d="M0 0 C0.99 0.66 1.98 1.32 3 2 C2.67 3.32 2.34 4.64 2 6 C1.34 5.67 0.68 5.34 0 5 C0 4.34 0 3.68 0 3 C-4.47883696 3.44703986 -4.47883696 3.44703986 -8 6 C-8.99 5.67 -9.98 5.34 -11 5 C-11 4.01 -11 3.02 -11 2 C-7.17742309 0.20114028 -4.2209225 -0.36703674 0 0 Z " fill="#8C6549" transform="translate(76,52)"/>
<path d="M0 0 C2.67953841 2.67953841 2.97047356 5.39665745 4 9 C6.39763185 11.39763185 7.33273498 11.34280586 10.625 11.625 C11.85089844 11.73714844 11.85089844 11.73714844 13.1015625 11.8515625 C13.72804688 11.90054688 14.35453125 11.94953125 15 12 C15 12.33 15 12.66 15 13 C13.95199219 13.07347656 13.95199219 13.07347656 12.8828125 13.1484375 C11.97273438 13.22320312 11.06265625 13.29796875 10.125 13.375 C9.22007813 13.44460937 8.31515625 13.51421875 7.3828125 13.5859375 C4.82058097 13.79568132 4.82058097 13.79568132 3 16 C-0.44419134 5.62642369 -0.44419134 5.62642369 0 0 Z " fill="#9F7047" transform="translate(58,51)"/>
<path d="M0 0 C0.88429688 -0.01417969 1.76859375 -0.02835938 2.6796875 -0.04296875 C5.125 0.1875 5.125 0.1875 8.125 2.1875 C8.125 2.8475 8.125 3.5075 8.125 4.1875 C3.835 3.5275 -0.455 2.8675 -4.875 2.1875 C-4.875 4.1675 -4.875 6.1475 -4.875 8.1875 C-3.885 8.5175 -2.895 8.8475 -1.875 9.1875 C-3.195 9.1875 -4.515 9.1875 -5.875 9.1875 C-5.97265625 3.03515625 -5.97265625 3.03515625 -5.875 1.1875 C-4.21846314 -0.46903686 -2.26849204 0.01643835 0 0 Z " fill="#CCA27A" transform="translate(67.875,29.8125)"/>
<path d="M0 0 C0.33 0 0.66 0 1 0 C1.66 5.28 2.32 10.56 3 16 C1.68 16.33 0.36 16.66 -1 17 C-0.67 14.69 -0.34 12.38 0 10 C-1.65 10 -3.3 10 -5 10 C-5 9.67 -5 9.34 -5 9 C-3.35 9 -1.7 9 0 9 C0 8.34 0 7.68 0 7 C-0.66 7 -1.32 7 -2 7 C-2 6.34 -2 5.68 -2 5 C-1.34 5 -0.68 5 0 5 C0 3.35 0 1.7 0 0 Z " fill="#68574B" transform="translate(41,62)"/>
<path d="M0 0 C2.31 0 4.62 0 7 0 C7.33 1.65 7.66 3.3 8 5 C5.6875 5.625 5.6875 5.625 3 6 C2.01 5.34 1.02 4.68 0 4 C0 2.68 0 1.36 0 0 Z " fill="#F9D4B1" transform="translate(76,46)"/>
<path d="M0 0 C2.875 0.25 2.875 0.25 6 1 C7.4375 2.9375 7.4375 2.9375 8 5 C7.67 5.66 7.34 6.32 7 7 C5.68 6.67 4.36 6.34 3 6 C2.67 6.99 2.34 7.98 2 9 C2 8.34 2 7.68 2 7 C1.34 6.67 0.68 6.34 0 6 C0 4 0 2 0 0 Z " fill="#BB8B8F" transform="translate(83,70)"/>
<path d="M0 0 C3.10551666 0 4.35261084 0.5393715 7 2 C5.68 4.31 4.36 6.62 3 9 C0 7 0 7 -0.75 5.0625 C-1 3 -1 3 0 0 Z " fill="#CFA070" transform="translate(60,64)"/>
<path d="M0 0 C0.99 0 1.98 0 3 0 C3.33 0.66 3.66 1.32 4 2 C5.32 1.67 6.64 1.34 8 1 C8 1.66 8 2.32 8 3 C7.01 3.495 7.01 3.495 6 4 C5.34444881 6.52733235 5.34444881 6.52733235 5 9 C4.01 8.01 3.02 7.02 2 6 C1.01 6.99 0.02 7.98 -1 9 C-0.67 6.03 -0.34 3.06 0 0 Z " fill="#D19A85" transform="translate(86,47)"/>
<path d="M0 0 C3.3 0 6.6 0 10 0 C10.33 0.99 10.66 1.98 11 3 C10.05125 3.28875 9.1025 3.5775 8.125 3.875 C4.94788422 4.76825109 4.94788422 4.76825109 3 7 C2.01 4.69 1.02 2.38 0 0 Z " fill="#1C1711" transform="translate(54,0)"/>
<path d="M0 0 C0.5775 0.639375 1.155 1.27875 1.75 1.9375 C3.98062401 3.98223868 5.07436391 4.58205199 8 5 C8 5.99 8 6.98 8 8 C5.25 8.75 5.25 8.75 2 9 C-0.375 7.0625 -0.375 7.0625 -2 5 C-1.34 3.35 -0.68 1.7 0 0 Z " fill="#C39EB9" transform="translate(92,69)"/>
<path d="M0 0 C0.99 0 1.98 0 3 0 C3 5.28 3 10.56 3 16 C3.99 16.33 4.98 16.66 6 17 C4.35 16.67 2.7 16.34 1 16 C0.67 10.72 0.34 5.44 0 0 Z " fill="#835838" transform="translate(46,31)"/>
<path d="M0 0 C0.99 0.33 1.98 0.66 3 1 C2.67 2.32 2.34 3.64 2 5 C1.34 5 0.68 5 0 5 C-0.33 6.65 -0.66 8.3 -1 10 C-2.32 9.34 -3.64 8.68 -5 8 C-4.34 7.67 -3.68 7.34 -3 7 C-3 6.34 -3 5.68 -3 5 C-3.66 4.67 -4.32 4.34 -5 4 C-4.01 4 -3.02 4 -2 4 C-2 3.01 -2 2.02 -2 1 C-1.34 0.67 -0.68 0.34 0 0 Z " fill="#986A5F" transform="translate(102,30)"/>
<path d="M0 0 C0.33 0.99 0.66 1.98 1 3 C3.97 2.01 6.94 1.02 10 0 C10.33 0.66 10.66 1.32 11 2 C10.34 2 9.68 2 9 2 C9.33 2.99 9.66 3.98 10 5 C6 5 6 5 4 4 C4 4.66 4 5.32 4 6 C2.68 5.34 1.36 4.68 0 4 C0 2.68 0 1.36 0 0 Z " fill="#503D38" transform="translate(89,20)"/>
<path d="M0 0 C0.99 0.495 0.99 0.495 2 1 C2 1.99 2 2.98 2 4 C3.32 4.33 4.64 4.66 6 5 C5.34 6.65 4.68 8.3 4 10 C3.34 10 2.68 10 2 10 C1.67 10.66 1.34 11.32 1 12 C-0.3271261 8.0186217 -0.06915913 4.14954773 0 0 Z " fill="#332320" transform="translate(98,99)"/>
<path d="M0 0 C1.98 0 3.96 0 6 0 C6 0.66 6 1.32 6 2 C4.35 2 2.7 2 1 2 C0.34 4.97 -0.32 7.94 -1 11 C-1.66 11 -2.32 11 -3 11 C-3 8.03 -3 5.06 -3 2 C-2.01 2 -1.02 2 0 2 C0 1.34 0 0.68 0 0 Z " fill="#B564AA" transform="translate(25,75)"/>
<path d="M0 0 C2.475 0.99 2.475 0.99 5 2 C5 6.62 5 11.24 5 16 C4.67 16 4.34 16 4 16 C3.67 13.03 3.34 10.06 3 7 C2.34 7 1.68 7 1 7 C1 6.01 1 5.02 1 4 C0.34 3.67 -0.32 3.34 -1 3 C-0.67 2.01 -0.34 1.02 0 0 Z " fill="#C08681" transform="translate(87,52)"/>
<path d="M0 0 C0.99 0.33 1.98 0.66 3 1 C3 3.97 3 6.94 3 10 C2.01 9.67 1.02 9.34 0 9 C0.66 9 1.32 9 2 9 C2 8.34 2 7.68 2 7 C-0.31 6.67 -2.62 6.34 -5 6 C-4.67 5.01 -4.34 4.02 -4 3 C-2.35 3.33 -0.7 3.66 1 4 C0.67 2.68 0.34 1.36 0 0 Z " fill="#CBA6EB" transform="translate(103,47)"/>
<path d="M0 0 C0.99 0.66 1.98 1.32 3 2 C2.01 2.7734375 2.01 2.7734375 1 3.5625 C-1.65637543 6.79995755 -1.31342132 8.92552281 -1 13 C-1.66 12.34 -2.32 11.68 -3 11 C-3.66 11.99 -4.32 12.98 -5 14 C-5 11.36 -5 8.72 -5 6 C-4.34 6 -3.68 6 -3 6 C-2.690625 5.38125 -2.38125 4.7625 -2.0625 4.125 C-1.375 2.75 -0.6875 1.375 0 0 Z " fill="#35241A" transform="translate(55,30)"/>
<path d="M0 0 C0.185625 0.9590625 0.185625 0.9590625 0.375 1.9375 C0.684375 2.9584375 0.684375 2.9584375 1 4 C1.66 4.33 2.32 4.66 3 5 C2.34 6.98 1.68 8.96 1 11 C0.34 11 -0.32 11 -1 11 C-1.66 8.03 -2.32 5.06 -3 2 C-2.01 2 -1.02 2 0 2 C0 1.34 0 0.68 0 0 Z " fill="#814E57" transform="translate(95,85)"/>
<path d="M0 0 C1.32 0.33 2.64 0.66 4 1 C4 2.65 4 4.3 4 6 C1.09399739 7.25664978 -0.79604584 8 -4 8 C-3.67 7.01 -3.34 6.02 -3 5 C-2.34 5 -1.68 5 -1 5 C-0.67 3.35 -0.34 1.7 0 0 Z " fill="#423425" transform="translate(56,71)"/>
<path d="M0 0 C0.33 0.66 0.66 1.32 1 2 C2.65 2 4.3 2 6 2 C6 2.99 6 3.98 6 5 C0.58461538 6.23076923 0.58461538 6.23076923 -2.375 5.0625 C-2.91125 4.711875 -3.4475 4.36125 -4 4 C-4 3.34 -4 2.68 -4 2 C-2.68 1.34 -1.36 0.68 0 0 Z " fill="#F3D0AF" transform="translate(72,35)"/>
<path d="M0 0 C0.99 0 1.98 0 3 0 C4.125 5.75 4.125 5.75 3 8 C1.68 7.67 0.36 7.34 -1 7 C-1.04254356 5.00045254 -1.04080783 2.99958364 -1 1 C-0.67 0.67 -0.34 0.34 0 0 Z " fill="#725039" transform="translate(34,73)"/>
<path d="M0 0 C3.63 0 7.26 0 11 0 C11.33 0.99 11.66 1.98 12 3 C10.55245745 4.44754255 8.96037087 4.55733561 7 5 C6.67 4.01 6.34 3.02 6 2 C4.35 2 2.7 2 1 2 C0.67 1.34 0.34 0.68 0 0 Z " fill="#261B16" transform="translate(68,21)"/>
<path d="M0 0 C1.32 0 2.64 0 4 0 C4.33 2.64 4.66 5.28 5 8 C4.01 8 3.02 8 2 8 C1.67 7.01 1.34 6.02 1 5 C0.01 5 -0.98 5 -2 5 C-1.34 3.35 -0.68 1.7 0 0 Z " fill="#7C4B73" transform="translate(98,95)"/>
<path d="M0 0 C0.66 1.32 1.32 2.64 2 4 C2.66 4 3.32 4 4 4 C4.6875 5.75 4.6875 5.75 5 8 C3.6875 10.25 3.6875 10.25 2 12 C1.34 12 0.68 12 0 12 C0 8.04 0 4.08 0 0 Z " fill="#503728" transform="translate(50,24)"/>
<path d="M0 0 C1.98 0 3.96 0 6 0 C6.66 1.32 7.32 2.64 8 4 C5.36 3.67 2.72 3.34 0 3 C0 4.32 0 5.64 0 7 C-0.99 6.67 -1.98 6.34 -3 6 C-3 4.68 -3 3.36 -3 2 C-2.01 2 -1.02 2 0 2 C0 1.34 0 0.68 0 0 Z " fill="#CB9A79" transform="translate(94,25)"/>
<path d="M0 0 C0.66 0 1.32 0 2 0 C3.60725635 3.21451269 3.05748185 6.43612536 3 10 C1.68 10 0.36 10 -1 10 C-0.67 6.7 -0.34 3.4 0 0 Z " fill="#765686" transform="translate(22,105)"/>
<path d="M0 0 C2.12046792 3.53411321 2.53199289 6.94393835 3 11 C0.69 9.35 -1.62 7.7 -4 6 C-2.68 4.02 -1.36 2.04 0 0 Z " fill="#C58E61" transform="translate(76,76)"/>
<path d="M0 0 C0.66 0.33 1.32 0.66 2 1 C-2.69978858 5.82029598 -2.69978858 5.82029598 -6.40234375 6.33203125 C-8.62065332 6.31450906 -10.79311543 6.22068846 -13 6 C-13 5.01 -13 4.02 -13 3 C-11.783125 3.061875 -10.56625 3.12375 -9.3125 3.1875 C-5.37770224 3.21535698 -3.28107483 2.21955062 0 0 Z " fill="#715538" transform="translate(46,80)"/>
<path d="M0 0 C4.24480464 -0.33292585 6.35542625 -0.43885872 9.9375 2 C10.618125 2.66 11.29875 3.32 12 4 C12 3.34 12 2.68 12 2 C12.66 2.33 13.32 2.66 14 3 C13 5 13 5 10.75 5.875 C8 6 8 6 5.375 4.1875 C4.59125 3.465625 3.8075 2.74375 3 2 C2.01 1.34 1.02 0.68 0 0 Z " fill="#B48362" transform="translate(81,22)"/>
<path d="M0 0 C2.64 0 5.28 0 8 0 C8 0.99 8 1.98 8 3 C6.35 3 4.7 3 3 3 C3 3.66 3 4.32 3 5 C2.01 5 1.02 5 0 5 C0 3.35 0 1.7 0 0 Z " fill="#BB796C" transform="translate(22,72)"/>
<path d="M0 0 C0.99 0.33 1.98 0.66 3 1 C3.33 2.98 3.66 4.96 4 7 C3.34 7 2.68 7 2 7 C1.67 7.66 1.34 8.32 1 9 C-1.14809171 5.77786243 -1.29386153 4.72224599 -1 1 C-0.67 0.67 -0.34 0.34 0 0 Z " fill="#DEB28A" transform="translate(53,45)"/>
<path d="M0 0 C3.36591866 1.44253657 5.51047079 3.33264727 8 6 C6.33388095 6.042721 4.66617115 6.04063832 3 6 C2.67 5.67 2.34 5.34 2 5 C1.34 6.32 0.68 7.64 0 9 C-1.125 2.25 -1.125 2.25 0 0 Z " fill="#322219" transform="translate(51,20)"/>
<path d="M0 0 C3.63 0.33 7.26 0.66 11 1 C11 1.33 11 1.66 11 2 C9.88625 2.12375 8.7725 2.2475 7.625 2.375 C3.96896323 2.6465813 3.96896323 2.6465813 2 5 C-0.625 5.125 -0.625 5.125 -3 5 C-2.505 4.360625 -2.01 3.72125 -1.5 3.0625 C0.09802862 1.29025661 0.09802862 1.29025661 0 0 Z " fill="#433028" transform="translate(65,19)"/>
<path d="M0 0 C2.84550012 0.66010476 5.52325999 1.51724966 8.25 2.5625 C8.95640625 2.83191406 9.6628125 3.10132812 10.390625 3.37890625 C10.92171875 3.58386719 11.4528125 3.78882812 12 4 C12 4.33 12 4.66 12 5 C8.04 5 4.08 5 0 5 C0.66 4.67 1.32 4.34 2 4 C1.34 2.68 0.68 1.36 0 0 Z " fill="#432126" transform="translate(24,66)"/>
<path d="M0 0 C3.35595828 0.59927826 5.37801226 1.84622436 8 4 C7.34 4 6.68 4 6 4 C6 6.31 6 8.62 6 11 C5.7525 10.4225 5.505 9.845 5.25 9.25 C4.0681388 6.86733113 4.0681388 6.86733113 1.875 4.9375 C0 3 0 3 0 0 Z " fill="#C8A181" transform="translate(46,57)"/>
<path d="M0 0 C2.38564077 0.57584432 4.66682784 1.22227595 7 2 C6.67 2.99 6.34 3.98 6 5 C3.36 5.33 0.72 5.66 -2 6 C-1.67 5.34 -1.34 4.68 -1 4 C-0.34 4 0.32 4 1 4 C0.67 2.68 0.34 1.36 0 0 Z " fill="#452C44" transform="translate(93,46)"/>
<path d="M0 0 C0.33 0 0.66 0 1 0 C1 1.65 1 3.3 1 5 C1.99 5 2.98 5 4 5 C4 6.98 4 8.96 4 11 C3.67 10.34 3.34 9.68 3 9 C2.34 9 1.68 9 1 9 C1 10.65 1 12.3 1 14 C0.67 14 0.34 14 0 14 C0 9.38 0 4.76 0 0 Z " fill="#35183D" transform="translate(21,96)"/>
<path d="M0 0 C0.99 0 1.98 0 3 0 C3 3.63 3 7.26 3 11 C2.01 11 1.02 11 0 11 C0 7.37 0 3.74 0 0 Z " fill="#C18E6D" transform="translate(38,72)"/>
<path d="M0 0 C2.31 0 4.62 0 7 0 C7 0.99 7 1.98 7 3 C6.34 3 5.68 3 5 3 C5 3.66 5 4.32 5 5 C3.35 5 1.7 5 0 5 C0 3.33333333 0 1.66666667 0 0 Z " fill="#8D694E" transform="translate(62,39)"/>
<path d="M0 0 C0.99 0.33 1.98 0.66 3 1 C3 1.66 3 2.32 3 3 C3.99 3.33 4.98 3.66 6 4 C7.60546875 5.62890625 7.60546875 5.62890625 9.1875 7.5625 C9.71730469 8.20316406 10.24710938 8.84382812 10.79296875 9.50390625 C11.39044922 10.24447266 11.39044922 10.24447266 12 11 C11.67 11.66 11.34 12.32 11 13 C5.98756041 9.15619099 2.8313413 5.6626826 0 0 Z " fill="#F87E3E" transform="translate(44,2)"/>
<path d="M0 0 C1.98 0.99 1.98 0.99 4 2 C3.835 2.721875 3.67 3.44375 3.5 4.1875 C3.02412881 6.86427545 2.922557 9.28949487 3 12 C2.01 12 1.02 12 0 12 C0 8.04 0 4.08 0 0 Z " fill="#936A84" transform="translate(102,72)"/>
<path d="M0 0 C0.33 0.66 0.66 1.32 1 2 C0.67 2.99 0.34 3.98 0 5 C0.99 5.33 1.98 5.66 3 6 C2.01 6.495 2.01 6.495 1 7 C1 8.32 1 9.64 1 11 C-0.32 10.34 -1.64 9.68 -3 9 C-2.44271087 5.65626525 -1.64826111 2.96687001 0 0 Z " fill="#856564" transform="translate(103,18)"/>
<path d="M0 0 C1.98 0 3.96 0 6 0 C6.6875 2.3125 6.6875 2.3125 7 5 C5.5625 6.8125 5.5625 6.8125 4 8 C3.01 7.67 2.02 7.34 1 7 C1.66 7 2.32 7 3 7 C2.67 5.68 2.34 4.36 2 3 C2.99 3 3.98 3 5 3 C5 2.34 5 1.68 5 1 C3.68 1 2.36 1 1 1 C0.67 1.66 0.34 2.32 0 3 C0 2.01 0 1.02 0 0 Z " fill="#54362D" transform="translate(24,83)"/>
<path d="M0 0 C1.98 0.99 1.98 0.99 4 2 C4 4.33333333 4 6.66666667 4 9 C3.01 9 2.02 9 1 9 C0.67 6.03 0.34 3.06 0 0 Z " fill="#9D759F" transform="translate(97,63)"/>
<path d="M0 0 C1.9375 0.625 1.9375 0.625 4 2 C4.75 5.125 4.75 5.125 5 8 C3.68 7.67 2.36 7.34 1 7 C0.67 4.69 0.34 2.38 0 0 Z " fill="#4D303E" transform="translate(92,59)"/>
<path d="M0 0 C2.64 0 5.28 0 8 0 C8 0.33 8 0.66 8 1 C5.36 1.33 2.72 1.66 0 2 C0.061875 2.94875 0.12375 3.8975 0.1875 4.875 C0.125625 5.90625 0.06375 6.9375 0 8 C-0.99 8.66 -1.98 9.32 -3 10 C-2.39009109 6.44219804 -1.4216319 3.3171411 0 0 Z " fill="#47301E" transform="translate(61,29)"/>
<path d="M0 0 C1.32 0 2.64 0 4 0 C4.33 1.65 4.66 3.3 5 5 C2.69 5 0.38 5 -2 5 C-1.34 3.35 -0.68 1.7 0 0 Z " fill="#B87D5F" transform="translate(26,77)"/>
<path d="M0 0 C0.99 0.66 1.98 1.32 3 2 C3 3.32 3 4.64 3 6 C2.01 6.33 1.02 6.66 0 7 C-0.99 5.35 -1.98 3.7 -3 2 C-2.01 1.34 -1.02 0.68 0 0 Z " fill="#5E4E51" transform="translate(82,71)"/>
<path d="M0 0 C0.45375 0.495 0.9075 0.99 1.375 1.5 C2.87635519 3.22609337 2.87635519 3.22609337 5 3 C5 3.99 5 4.98 5 6 C3.02 6 1.04 6 -1 6 C-1.625 4.125 -1.625 4.125 -2 2 C-1.34 1.34 -0.68 0.68 0 0 Z " fill="#EEC28A" transform="translate(83,16)"/>
<path d="M0 0 C2.475 0.495 2.475 0.495 5 1 C5 2.65 5 4.3 5 6 C4.01 6.33 3.02 6.66 2 7 C2 5.68 2 4.36 2 3 C1.34 3 0.68 3 0 3 C0 2.01 0 1.02 0 0 Z " fill="#A07D71" transform="translate(73,0)"/>
<path d="M0 0 C0.66 0 1.32 0 2 0 C3.35278115 1.98689731 4.68568305 3.98745218 6 6 C6.66 6.33 7.32 6.66 8 7 C8.625 9.0625 8.625 9.0625 9 11 C8.34 11 7.68 11 7 11 C7 10.01 7 9.02 7 8 C6.401875 7.938125 5.80375 7.87625 5.1875 7.8125 C2.09660471 6.66445318 1.4119656 4.89452948 0 2 C0 1.34 0 0.68 0 0 Z " fill="#3E302F" transform="translate(66,0)"/>
<path d="M0 0 C2.70272533 2.87164566 3.94791837 4.30991841 4.25 8.3125 C4.1675 9.199375 4.085 10.08625 4 11 C1 7.375 1 7.375 1 4 C0.01 3.67 -0.98 3.34 -2 3 C-1.34 2.01 -0.68 1.02 0 0 Z " fill="#534639" transform="translate(59,68)"/>
<path d="M0 0 C1.32 0.33 2.64 0.66 4 1 C4 2.65 4 4.3 4 6 C-0.875 4.25 -0.875 4.25 -2 2 C-1.34 2 -0.68 2 0 2 C0 1.34 0 0.68 0 0 Z " fill="#9C9081" transform="translate(51,55)"/>
<path d="M0 0 C1.98 0.495 1.98 0.495 4 1 C4 2.65 4 4.3 4 6 C2.35 5.67 0.7 5.34 -1 5 C-0.67 3.35 -0.34 1.7 0 0 Z " fill="#41322B" transform="translate(91,31)"/>
<path d="M0 0 C1.32 0.33 2.64 0.66 4 1 C3.67 1.66 3.34 2.32 3 3 C3.66 3.33 4.32 3.66 5 4 C4.67 4.66 4.34 5.32 4 6 C2.68 6 1.36 6 0 6 C0 4.02 0 2.04 0 0 Z " fill="#EBC091" transform="translate(63,32)"/>
<path d="M0 0 C1.65 0 3.3 0 5 0 C5 0.99 5 1.98 5 3 C2 5 2 5 -0.1875 4.625 C-0.785625 4.41875 -1.38375 4.2125 -2 4 C-1.34 2.68 -0.68 1.36 0 0 Z " fill="#CCA0D2" transform="translate(90,14)"/>
<path d="M0 0 C0.66 0 1.32 0 2 0 C3.4606285 2.64738916 4 3.89448334 4 7 C3.01 7.33 2.02 7.66 1 8 C0 7 0 7 -0.0625 3.4375 C-0.041875 2.303125 -0.02125 1.16875 0 0 Z " fill="#EB8F70" transform="translate(60,13)"/>
<path d="M0 0 C5.78461538 3.44615385 5.78461538 3.44615385 6.875 6.25 C6.936875 7.11625 6.936875 7.11625 7 8 C6.01 7.34 5.02 6.68 4 6 C2.68 6 1.36 6 0 6 C0 4.02 0 2.04 0 0 Z " fill="#A66DA2" transform="translate(94,107)"/>
<path d="M0 0 C2.62370236 3.00245204 3.36302348 4.77146788 3.1875 8.75 C3.16042969 9.54921875 3.13335937 10.3484375 3.10546875 11.171875 C3.07066406 11.77515625 3.03585938 12.3784375 3 13 C0.89172945 9.83759418 0.66182535 8.49342531 0.375 4.8125 C0.30023438 3.91144531 0.22546875 3.01039062 0.1484375 2.08203125 C0.09945312 1.39496094 0.05046875 0.70789063 0 0 Z " fill="#433836" transform="translate(77,75)"/>
<path d="M0 0 C0.66 0 1.32 0 2 0 C2 0.66 2 1.32 2 2 C2.66 2.33 3.32 2.66 4 3 C3.67 4.32 3.34 5.64 3 7 C0.525 6.01 0.525 6.01 -2 5 C-2 4.34 -2 3.68 -2 3 C-1.01 3 -0.02 3 1 3 C0.67 2.01 0.34 1.02 0 0 Z " fill="#7E5266" transform="translate(95,67)"/>
<path d="M0 0 C2.0625 1.625 2.0625 1.625 4 4 C3.75 7.25 3.75 7.25 3 10 C1.11608215 6.73454239 0.50712033 3.71888239 0 0 Z " fill="#19191E" transform="translate(78,73)"/>
<path d="M0 0 C2.97 0.33 5.94 0.66 9 1 C9 2.65 9 4.3 9 6 C8.34 5.01 7.68 4.02 7 3 C6.01 2.67 5.02 2.34 4 2 C4 2.66 4 3.32 4 4 C3.01 4 2.02 4 1 4 C0.67 2.68 0.34 1.36 0 0 Z " fill="#C69771" transform="translate(68,66)"/>
<path d="M0 0 C0.66 0.99 1.32 1.98 2 3 C0.25 5.0625 0.25 5.0625 -2 7 C-4.25 6.75 -4.25 6.75 -6 6 C-4.71034824 4.62437146 -3.37310707 3.29233607 -2 2 C-1.34 2 -0.68 2 0 2 C0 1.34 0 0.68 0 0 Z " fill="#9F6C48" transform="translate(64,18)"/>
<path d="M0 0 C0.99 0 1.98 0 3 0 C3.66 1.98 4.32 3.96 5 6 C3.35 6 1.7 6 0 6 C0 4.02 0 2.04 0 0 Z " fill="#9D679D" transform="translate(93,96)"/>
<path d="M0 0 C5.875 2.75 5.875 2.75 7 5 C5.68 5 4.36 5 3 5 C2.34 5.66 1.68 6.32 1 7 C0.67 4.69 0.34 2.38 0 0 Z " fill="#4B4C52" transform="translate(67,88)"/>
<path d="M0 0 C2.475 0.99 2.475 0.99 5 2 C5 2.99 5 3.98 5 5 C4.34 4.67 3.68 4.34 3 4 C2.34 4.66 1.68 5.32 1 6 C0 5 0 5 -0.0625 2.4375 C-0.041875 1.633125 -0.02125 0.82875 0 0 Z " fill="#493935" transform="translate(85,83)"/>
<path d="M0 0 C3.32901247 2.21934164 3.75023244 3.34683329 5 7 C4.01 7 3.02 7 2 7 C0.25 4.625 0.25 4.625 -1 2 C-0.67 1.34 -0.34 0.68 0 0 Z " fill="#D7C3D9" transform="translate(96,78)"/>
<path d="M0 0 C2.875 0.25 2.875 0.25 6 1 C7.375 3.0625 7.375 3.0625 8 5 C5.07120629 4.37240135 2.63904371 3.41377341 0 2 C0 1.34 0 0.68 0 0 Z " fill="#996771" transform="translate(83,70)"/>
<path d="M0 0 C0.99 0 1.98 0 3 0 C3 3.3 3 6.6 3 10 C0 7 0 7 -0.1875 3.3125 C-0.125625 2.219375 -0.06375 1.12625 0 0 Z " fill="#BC8360" transform="translate(31,72)"/>
<path d="M0 0 C1.04449911 3.13349732 0.93423645 3.98968256 0 7 C-1.32 7 -2.64 7 -4 7 C-3.6875 5.0625 -3.6875 5.0625 -3 3 C-2.01 2.67 -1.02 2.34 0 2 C0 1.34 0 0.68 0 0 Z " fill="#37353B" transform="translate(83,86)"/>
<path d="M0 0 C1.37562854 1.28965176 2.70766393 2.62689293 4 4 C4 4.66 4 5.32 4 6 C1.03 5.505 1.03 5.505 -2 5 C-2 4.34 -2 3.68 -2 3 C-1.34 3 -0.68 3 0 3 C0 2.01 0 1.02 0 0 Z " fill="#402725" transform="translate(84,60)"/>
<path d="M0 0 C0.66 0 1.32 0 2 0 C1.34 2.64 0.68 5.28 0 8 C-0.99 7.67 -1.98 7.34 -3 7 C-1.125 2.25 -1.125 2.25 0 0 Z " fill="#818784" transform="translate(51,49)"/>
<path d="M0 0 C0.33 0.66 0.66 1.32 1 2 C2.98 2 4.96 2 7 2 C6.01 2.495 6.01 2.495 5 3 C5 3.66 5 4.32 5 5 C4.34 5 3.68 5 3 5 C2.67 5.66 2.34 6.32 2 7 C0.5393715 4.35261084 0 3.10551666 0 0 Z " fill="#E2B78C" transform="translate(60,51)"/>
<path d="M0 0 C1.32 0.33 2.64 0.66 4 1 C4.33 2.32 4.66 3.64 5 5 C4.01 5.33 3.02 5.66 2 6 C1.34 4.02 0.68 2.04 0 0 Z " fill="#B59691" transform="translate(66,6)"/>
<path d="M0 0 C1.4606285 2.64738916 2 3.89448334 2 7 C0.68 6.34 -0.64 5.68 -2 5 C-2 3.68 -2 2.36 -2 1 C-1.34 0.67 -0.68 0.34 0 0 Z " fill="#77546F" transform="translate(102,108)"/>
<path d="M0 0 C1.98 0.495 1.98 0.495 4 1 C4.33 3.31 4.66 5.62 5 8 C3 6 3 6 1 3 C0.34 2.67 -0.32 2.34 -1 2 C-0.67 1.34 -0.34 0.68 0 0 Z " fill="#DEAF85" transform="translate(72,68)"/>
<path d="M0 0 C0.66 0 1.32 0 2 0 C2.33 1.32 2.66 2.64 3 4 C2.360625 4.103125 1.72125 4.20625 1.0625 4.3125 C0.381875 4.539375 -0.29875 4.76625 -1 5 C-1.33 5.99 -1.66 6.98 -2 8 C-2.33 7.34 -2.66 6.68 -3 6 C-2.06553465 3.96855359 -1.06775224 1.96466413 0 0 Z " fill="#E3BB96" transform="translate(66,66)"/>
<path d="M0 0 C0.66 0 1.32 0 2 0 C1.4140625 6.15234375 1.4140625 6.15234375 1 8 C0.01 8.495 0.01 8.495 -1 9 C-0.67 6.03 -0.34 3.06 0 0 Z " fill="#EABD96" transform="translate(86,47)"/>
<path d="M0 0 C1.65 0 3.3 0 5 0 C5 1.32 5 2.64 5 4 C3.35 4 1.7 4 0 4 C0 2.68 0 1.36 0 0 Z " fill="#FCD9B9" transform="translate(62,47)"/>
<path d="M0 0 C1.32 0.33 2.64 0.66 4 1 C4 1.99 4 2.98 4 4 C2.02 4 0.04 4 -2 4 C-2.33 3.01 -2.66 2.02 -3 1 C-2.34 1 -1.68 1 -1 1 C-1 1.66 -1 2.32 -1 3 C-0.34 2.67 0.32 2.34 1 2 C0.67 1.34 0.34 0.68 0 0 Z " fill="#BA8E6C" transform="translate(78,41)"/>
<path d="M0 0 C0.99 0.33 1.98 0.66 3 1 C2.67 2.32 2.34 3.64 2 5 C0.68 5 -0.64 5 -2 5 C-2 3.68 -2 2.36 -2 1 C-1.34 0.67 -0.68 0.34 0 0 Z " fill="#3C2F2A" transform="translate(102,30)"/>
<path d="M0 0 C3 2 3 2 3.6875 4.625 C3.790625 5.40875 3.89375 6.1925 4 7 C2 6 0 5 -2 4 C-1.33333333 2.66666667 -0.66666667 1.33333333 0 0 Z " fill="#35251B" transform="translate(79,21)"/>
<path d="M0 0 C1.70884005 1.62339805 3.37446717 3.29319053 5 5 C5 5.66 5 6.32 5 7 C5.66 7.33 6.32 7.66 7 8 C4.24542282 7.62005832 3.17979426 7.1926367 1.25 5.125 C0 3 0 3 0 0 Z " fill="#CD8240" transform="translate(52,16)"/>
<path d="M0 0 C1.98 0.495 1.98 0.495 4 1 C3.67 2.32 3.34 3.64 3 5 C1.68 4.67 0.36 4.34 -1 4 C-0.67 2.68 -0.34 1.36 0 0 Z " fill="#724868" transform="translate(94,101)"/>
<path d="M0 0 C0.66 0 1.32 0 2 0 C2 0.66 2 1.32 2 2 C3.32 2 4.64 2 6 2 C6 2.66 6 3.32 6 4 C4.35 3.67 2.7 3.34 1 3 C1 3.66 1 4.32 1 5 C0.01 4.67 -0.98 4.34 -2 4 C-1.34 2.68 -0.68 1.36 0 0 Z " fill="#7C5950" transform="translate(90,75)"/>
<path d="M0 0 C0.66 0.33 1.32 0.66 2 1 C0.68 3.31 -0.64 5.62 -2 8 C-3.34882814 5.30234372 -2.80338265 3.84835666 -2 1 C-1.34 0.67 -0.68 0.34 0 0 Z " fill="#D9AD82" transform="translate(65,65)"/>
<path d="M0 0 C1.65 0.33 3.3 0.66 5 1 C4.67 1.66 4.34 2.32 4 3 C3.34 2.67 2.68 2.34 2 2 C2 2.66 2 3.32 2 4 C0.02 4 -1.96 4 -4 4 C-2.68 3.34 -1.36 2.68 0 2 C0 1.34 0 0.68 0 0 Z " fill="#DBC5F6" transform="translate(101,59)"/>
<path d="M0 0 C1.65 0 3.3 0 5 0 C5 0.66 5 1.32 5 2 C4.34 2 3.68 2 3 2 C2.67 2.99 2.34 3.98 2 5 C1.01 4.67 0.02 4.34 -1 4 C-0.67 2.68 -0.34 1.36 0 0 Z " fill="#D9C6B3" transform="translate(43,60)"/>
<path d="M0 0 C2.64 0 5.28 0 8 0 C8.33 0.66 8.66 1.32 9 2 C6.69 2.33 4.38 2.66 2 3 C1.34 2.01 0.68 1.02 0 0 Z " fill="#6E5972" transform="translate(97,58)"/>
<path d="M0 0 C1.32 0.66 2.64 1.32 4 2 C4 2.66 4 3.32 4 4 C2.02 4 0.04 4 -2 4 C-2.33 3.34 -2.66 2.68 -3 2 C-2.01 2 -1.02 2 0 2 C0 1.34 0 0.68 0 0 Z " fill="#A777E0" transform="translate(95,50)"/>
<path d="M0 0 C1.1577506 3.47325181 1.06866652 6.36067448 1 10 C0.01 10.33 -0.98 10.66 -2 11 C-1.85892253 9.54119891 -1.71197585 8.08296449 -1.5625 6.625 C-1.48128906 5.81289063 -1.40007812 5.00078125 -1.31640625 4.1640625 C-1 2 -1 2 0 0 Z " fill="#C08A6A" transform="translate(85,47)"/>
<path d="M0 0 C0 0.99 0 1.98 0 3 C-0.66 2.67 -1.32 2.34 -2 2 C-1.67 3.32 -1.34 4.64 -1 6 C-2.32 5.67 -3.64 5.34 -5 5 C-4.67 3.68 -4.34 2.36 -4 1 C-2.68 0.67 -1.36 0.34 0 0 Z " fill="#D5B6FC" transform="translate(105,45)"/>
<path d="M0 0 C0.33 0 0.66 0 1 0 C1.33 2.31 1.66 4.62 2 7 C0.68 7 -0.64 7 -2 7 C-1.34 4.69 -0.68 2.38 0 0 Z " fill="#F7CEA7" transform="translate(72,43)"/>
<path d="M0 0 C1.65 0 3.3 0 5 0 C5.33 0.66 5.66 1.32 6 2 C3.69 2.33 1.38 2.66 -1 3 C-0.67 2.01 -0.34 1.02 0 0 Z " fill="#E8CAE5" transform="translate(96,43)"/>
<path d="M0 0 C0.99 0 1.98 0 3 0 C3 2.97 3 5.94 3 9 C0.87491756 5.81237635 0.4979837 3.73487777 0 0 Z " fill="#AE7B55" transform="translate(46,31)"/>
<path d="M0 0 C2.31 0.66 4.62 1.32 7 2 C4.38058783 3.74627478 2.96175123 4.38722388 0 5 C-0.33 4.34 -0.66 3.68 -1 3 C-0.67 2.01 -0.34 1.02 0 0 Z " fill="#A47D83" transform="translate(86,11)"/>
<path d="M0 0 C0.99 0.33 1.98 0.66 3 1 C3 1.99 3 2.98 3 4 C3.99 4.33 4.98 4.66 6 5 C5.67 5.99 5.34 6.98 5 8 C1.39345961 5.59563974 1.14547068 4.05320393 0 0 Z " fill="#B36E2F" transform="translate(46,10)"/>
<path d="M0 0 C1.98 0 3.96 0 6 0 C5.67 0.99 5.34 1.98 5 3 C4.34 3 3.68 3 3 3 C2.67 3.66 2.34 4.32 2 5 C1.34 3.35 0.68 1.7 0 0 Z " fill="#534E11" transform="translate(54,0)"/>
<path d="M0 0 C4 1 4 1 4 1 Z " fill="#BF8A25" transform="translate(44,0)"/>
<path d="M0 0 C3 1 3 1 3 1 Z " fill="#5B5B5B" transform="translate(81,127)"/>
<path d="M0 0 C3 1 3 1 3 1 Z " fill="#000000" transform="translate(44,127)"/>
<path d="M0 0 C3 1 3 1 3 1 Z " fill="#15156A" transform="translate(84,126)"/>
<path d="M0 0 C3 1 3 1 3 1 Z " fill="#000000" transform="translate(41,126)"/>
<path d="M0 0 C3 1 3 1 3 1 Z " fill="#000000" transform="translate(87,125)"/>
<path d="M0 0 C3 1 3 1 3 1 Z " fill="#000000" transform="translate(36,124)"/>
<path d="" fill="#000000" transform="translate(0,0)"/>
<path d="" fill="#000000" transform="translate(0,0)"/>
<path d="" fill="#000000" transform="translate(0,0)"/>
<path d="" fill="#000000" transform="translate(0,0)"/>
<path d="" fill="#000000" transform="translate(0,0)"/>
<path d="M0 0 C3 1 3 1 3 1 Z " fill="#000000" transform="translate(84,1)"/>
<path d="M0 0 C3 1 3 1 3 1 Z " fill="#8D5538" transform="translate(41,1)"/>
<path d="M0 0 C3 1 3 1 3 1 Z " fill="#000000" transform="translate(81,0)"/>
<path d="M0 0 C2 1 2 1 2 1 Z " fill="#000000" transform="translate(39,125)"/>
<path d="M0 0 C2 1 2 1 2 1 Z " fill="#1F001F" transform="translate(90,124)"/>
<path d="M0 0 C2 1 2 1 2 1 Z " fill="#3F3F3F" transform="translate(92,123)"/>
<path d="M0 0 C2 1 2 1 2 1 Z " fill="#002A2A" transform="translate(34,123)"/>
<path d="M0 0 C2 1 2 1 2 1 Z " fill="#3F3F3F" transform="translate(94,122)"/>
<path d="M0 0 C2 1 2 1 2 1 Z " fill="#000000" transform="translate(31,121)"/>
<path d="M0 0 C2 1 2 1 2 1 Z " fill="#000000" transform="translate(97,120)"/>
<path d="M0 0 C2 1 2 1 2 1 Z " fill="#000000" transform="translate(29,120)"/>
<path d="M0 0 C2 1 2 1 2 1 Z " fill="#7F007F" transform="translate(100,118)"/>
<path d="M0 0 C2 1 2 1 2 1 Z " fill="#000000" transform="translate(26,118)"/>
<path d="M0 0 C2 1 2 1 2 1 Z " fill="#000000" transform="translate(104,115)"/>
<path d="" fill="#000000" transform="translate(0,0)"/>
<path d="" fill="#000000" transform="translate(0,0)"/>
<path d="" fill="#000000" transform="translate(0,0)"/>
<path d="" fill="#000000" transform="translate(0,0)"/>
<path d="" fill="#000000" transform="translate(0,0)"/>
<path d="" fill="#000000" transform="translate(0,0)"/>
<path d="" fill="#000000" transform="translate(0,0)"/>
<path d="" fill="#000000" transform="translate(0,0)"/>
<path d="M0 0 C2 1 2 1 2 1 Z " fill="#000000" transform="translate(21,13)"/>
<path d="M0 0 C2 1 2 1 2 1 Z " fill="#000000" transform="translate(100,9)"/>
<path d="M0 0 C2 1 2 1 2 1 Z " fill="#000000" transform="translate(26,9)"/>
<path d="M0 0 C2 1 2 1 2 1 Z " fill="#000000" transform="translate(97,7)"/>
<path d="M0 0 C2 1 2 1 2 1 Z " fill="#000000" transform="translate(29,7)"/>
<path d="M0 0 C2 1 2 1 2 1 Z " fill="#000000" transform="translate(95,6)"/>
<path d="M0 0 C2 1 2 1 2 1 Z " fill="#000000" transform="translate(31,6)"/>
<path d="M0 0 C2 1 2 1 2 1 Z " fill="#000000" transform="translate(33,5)"/>
<path d="M0 0 C2 1 2 1 2 1 Z " fill="#000000" transform="translate(91,4)"/>
<path d="M0 0 C2 1 2 1 2 1 Z " fill="#000000" transform="translate(35,4)"/>
<path d="M0 0 C2 1 2 1 2 1 Z " fill="#000000" transform="translate(89,3)"/>
<path d="M0 0 C2 1 2 1 2 1 Z " fill="#000000" transform="translate(37,3)"/>
<path d="M0 0 C2 1 2 1 2 1 Z " fill="#000000" transform="translate(87,2)"/>
<path d="M0 0 C2 1 2 1 2 1 Z " fill="#000000" transform="translate(39,2)"/>
<path d="" fill="#000000" transform="translate(0,0)"/>
<path d="" fill="#AAAAAA" transform="translate(0,0)"/>
<path d="" fill="#7F3F7F" transform="translate(0,0)"/>
<path d="" fill="#000000" transform="translate(0,0)"/>
<path d="" fill="#555555" transform="translate(0,0)"/>
<path d="" fill="#000000" transform="translate(0,0)"/>
<path d="" fill="#7F7F7F" transform="translate(0,0)"/>
<path d="" fill="#3F3F3F" transform="translate(0,0)"/>
<path d="" fill="#7F007F" transform="translate(0,0)"/>
<path d="" fill="#000000" transform="translate(0,0)"/>
<path d="" fill="#000000" transform="translate(0,0)"/>
<path d="" fill="#00003F" transform="translate(0,0)"/>
<path d="" fill="#000000" transform="translate(0,0)"/>
<path d="" fill="#000000" transform="translate(0,0)"/>
<path d="" fill="#000000" transform="translate(0,0)"/>
<path d="" fill="#000000" transform="translate(0,0)"/>
<path d="" fill="#000000" transform="translate(0,0)"/>
<path d="" fill="#000000" transform="translate(0,0)"/>
<path d="" fill="#000000" transform="translate(0,0)"/>
<path d="" fill="#000000" transform="translate(0,0)"/>
<path d="" fill="#000000" transform="translate(0,0)"/>
<path d="" fill="#000000" transform="translate(0,0)"/>
<path d="" fill="#000000" transform="translate(0,0)"/>
<path d="" fill="#000000" transform="translate(0,0)"/>
<path d="" fill="#000000" transform="translate(0,0)"/>
<path d="" fill="#000000" transform="translate(0,0)"/>
<path d="" fill="#000000" transform="translate(0,0)"/>
<path d="" fill="#000000" transform="translate(0,0)"/>
<path d="" fill="#000000" transform="translate(0,0)"/>
<path d="" fill="#000000" transform="translate(0,0)"/>
<path d="" fill="#000000" transform="translate(0,0)"/>
<path d="" fill="#000000" transform="translate(0,0)"/>
<path d="" fill="#000000" transform="translate(0,0)"/>
<path d="" fill="#000000" transform="translate(0,0)"/>
<path d="" fill="#000000" transform="translate(0,0)"/>
<path d="" fill="#000000" transform="translate(0,0)"/>
<path d="" fill="#000000" transform="translate(0,0)"/>
<path d="" fill="#000000" transform="translate(0,0)"/>
<path d="" fill="#000000" transform="translate(0,0)"/>
<path d="" fill="#000000" transform="translate(0,0)"/>
<path d="" fill="#000000" transform="translate(0,0)"/>
<path d="" fill="#000000" transform="translate(0,0)"/>
<path d="" fill="#000000" transform="translate(0,0)"/>
<path d="" fill="#000000" transform="translate(0,0)"/>
<path d="" fill="#000000" transform="translate(0,0)"/>
</svg>
